<svg width="125" height="208" viewBox="0 0 125 208" fill="none" xmlns="http://www.w3.org/2000/svg">
<path fill-rule="evenodd" clip-rule="evenodd" d="M62.5001 206H61.9999H2V192.5C11.6 192.5 16 184.167 17 180V165H30.0001C42.8002 146.6 44.0001 118.333 43 106.5H27.0001C20.6001 106.5 19.6668 101.833 20.0001 99.5C20.0001 93.1 24.6668 91.5 27.0001 91.5H53.0001C27.0001 77.5 26.8334 64.3333 30.0001 59.5C47.1733 45.0206 56.811 26.2184 60.8222 14.9651C57.5509 14.6262 55 11.861 55 8.5C55 4.91015 57.9101 2 61.5 2C65.0899 2 68 4.91015 68 8.5C68 11.3658 66.1454 13.7985 63.5708 14.6632C67.5162 25.8797 77.1722 44.8904 94.4999 59.5C97.6666 64.3333 97.4999 77.5 71.4999 91.5H97.4999C99.8332 91.5 104.5 93.1 104.5 99.5C104.833 101.833 103.9 106.5 97.4999 106.5H81.5C80.4999 118.333 81.6998 146.6 94.4999 165H107.5V180C108.5 184.167 112.9 192.5 122.5 192.5V206H62.5001Z" fill="#646367"/>
<path d="M2 206H0V208H2V206ZM2 192.5V190.5H0V192.5H2ZM17 180L18.9448 180.467L19 180.237V180H17ZM17 165V163H15V165H17ZM30.0001 165V167H31.0451L31.6419 166.142L30.0001 165ZM43 106.5L44.9929 106.332L44.8381 104.5H43V106.5ZM20.0001 99.5L21.98 99.7828L22.0001 99.6421V99.5H20.0001ZM53.0001 91.5V93.5L53.9483 89.7391L53.0001 91.5ZM30.0001 59.5L28.7109 57.971L28.4874 58.1594L28.3272 58.4039L30.0001 59.5ZM60.8222 14.9651L62.7061 15.6366L63.5611 13.2381L61.0284 12.9757L60.8222 14.9651ZM63.5708 14.6632L62.9341 12.7672L61.011 13.4131L61.6841 15.3268L63.5708 14.6632ZM94.4999 59.5L96.1728 58.4039L96.0126 58.1594L95.7891 57.971L94.4999 59.5ZM71.4999 91.5L70.5517 89.7391L71.4999 93.5V91.5ZM104.5 99.5H102.5V99.6421L102.52 99.7828L104.5 99.5ZM81.5 106.5V104.5H79.6619L79.5071 106.332L81.5 106.5ZM94.4999 165L92.8581 166.142L93.4549 167H94.4999V165ZM107.5 165H109.5V163H107.5V165ZM107.5 180H105.5V180.237L105.555 180.467L107.5 180ZM122.5 192.5H124.5V190.5H122.5V192.5ZM122.5 206V208H124.5V206H122.5ZM61.9999 208H62.5001V204H61.9999V208ZM2 208H61.9999V204H2V208ZM0 192.5V206H4V192.5H0ZM15.0552 179.533C14.6239 181.33 13.4193 184.132 11.2613 186.45C9.1452 188.722 6.15053 190.5 2 190.5V194.5C7.44947 194.5 11.4548 192.111 14.1887 189.175C16.8807 186.285 18.3761 182.836 18.9448 180.467L15.0552 179.533ZM15 165V180H19V165H15ZM30.0001 163H17V167H30.0001V163ZM41.0071 106.668C41.4936 112.425 41.449 122.285 39.7013 132.964C37.9508 143.661 34.5204 155 28.3583 163.858L31.6419 166.142C38.2799 156.6 41.8494 144.606 43.6488 133.611C45.4511 122.598 45.5064 112.408 44.9929 106.332L41.0071 106.668ZM27.0001 108.5H43V104.5H27.0001V108.5ZM18.0202 99.2172C17.8027 100.739 17.9798 103.027 19.3212 105C20.7462 107.095 23.2542 108.5 27.0001 108.5V104.5C24.346 104.5 23.1873 103.571 22.6289 102.75C21.9871 101.806 21.8641 100.594 21.98 99.7828L18.0202 99.2172ZM27.0001 89.5C25.4542 89.5 23.2308 90.0116 21.3543 91.5556C19.396 93.1671 18.0001 95.7535 18.0001 99.5H22.0001C22.0001 96.8465 22.9375 95.4329 23.8959 94.6444C24.9361 93.7884 26.2126 93.5 27.0001 93.5V89.5ZM53.0001 89.5H27.0001V93.5H53.0001V89.5ZM28.3272 58.4039C26.2811 61.5269 25.6202 66.8089 28.783 72.9753C31.9325 79.1157 38.8563 86.1556 52.0519 93.2609L53.9483 89.7391C41.1439 82.8444 34.9843 76.301 32.3422 71.1497C29.7133 66.0244 30.5524 62.3065 31.673 60.5961L28.3272 58.4039ZM58.9384 14.2936C55.0084 25.3189 45.5391 43.7825 28.7109 57.971L31.2893 61.029C48.8075 46.2588 58.6136 27.1179 62.7061 15.6366L58.9384 14.2936ZM53 8.5C53 12.8964 56.3361 16.511 60.6161 16.9544L61.0284 12.9757C58.7657 12.7413 57 10.8256 57 8.5H53ZM61.5 0C56.8056 0 53 3.80558 53 8.5H57C57 6.01472 59.0147 4 61.5 4V0ZM70 8.5C70 3.80558 66.1944 0 61.5 0V4C63.9853 4 66 6.01472 66 8.5H70ZM64.2076 16.5591C67.572 15.4291 70 12.2507 70 8.5H66C66 10.4809 64.7187 12.1678 62.9341 12.7672L64.2076 16.5591ZM95.7891 57.971C78.8089 43.6543 69.3218 24.9855 65.4575 13.9995L61.6841 15.3268C65.7106 26.7738 75.5354 46.1264 93.2107 61.029L95.7891 57.971ZM72.4481 93.2609C85.6437 86.1556 92.5675 79.1157 95.717 72.9753C98.8798 66.8089 98.2189 61.5269 96.1728 58.4039L92.827 60.5961C93.9476 62.3065 94.7867 66.0244 92.1578 71.1497C89.5157 76.301 83.3561 82.8444 70.5517 89.7391L72.4481 93.2609ZM97.4999 89.5H71.4999V93.5H97.4999V89.5ZM106.5 99.5C106.5 95.7535 105.104 93.167 103.146 91.5556C101.269 90.0116 99.0458 89.5 97.4999 89.5V93.5C98.2874 93.5 99.5639 93.7884 100.604 94.6444C101.562 95.4329 102.5 96.8465 102.5 99.5H106.5ZM97.4999 108.5C101.246 108.5 103.754 107.095 105.179 105C106.52 103.027 106.697 100.739 106.48 99.2172L102.52 99.7828C102.636 100.594 102.513 101.806 101.871 102.75C101.313 103.571 100.154 104.5 97.4999 104.5V108.5ZM81.5 108.5H97.4999V104.5H81.5V108.5ZM96.1417 163.858C89.9796 155 86.5491 143.661 84.7987 132.964C83.051 122.285 83.0064 112.425 83.4929 106.668L79.5071 106.332C78.9936 112.408 79.0489 122.598 80.8512 133.611C82.6506 144.606 86.2201 156.6 92.8581 166.142L96.1417 163.858ZM107.5 163H94.4999V167H107.5V163ZM109.5 180V165H105.5V180H109.5ZM122.5 190.5C118.349 190.5 115.355 188.722 113.239 186.45C111.081 184.132 109.876 181.33 109.445 179.533L105.555 180.467C106.124 182.836 107.619 186.285 110.311 189.175C113.045 192.111 117.051 194.5 122.5 194.5V190.5ZM124.5 206V192.5H120.5V206H124.5ZM62.5001 208H122.5V204H62.5001V208Z" fill="black"/>
<rect x="17" y="166" width="90" height="13" fill="#646367" stroke="black" stroke-width="4"/>
<g filter="url(#filter0_df_84_223)">
<ellipse cx="50.5" cy="51" rx="3.5" ry="6" transform="rotate(40.6684 50.5 51)" fill="#8E8B96"/>
</g>
<g filter="url(#filter1_df_84_223)">
<path d="M42 80C75.2 74.4 78.8333 53 76.5 43L95 60C96.6 66 94.3333 70.1667 93 71.5C79 85.9 65.8333 90.1667 61 90.5H53.5C47.5 88.9 41 82.8333 38.5 80H42Z" fill="#4B4A4D"/>
</g>
<g filter="url(#filter2_f_84_223)">
<path d="M90.4198 161.64C64.3313 104.877 50.9527 93.1847 47.5 94.5L39.5 92H43H46.5H51.5H72.5H95.5C102.3 92 104 97 104 99.5C104 103.5 100.667 106.167 99 107H81C75.7321 122.051 84.5049 148.312 90.4198 161.64C90.7775 162.418 91.1375 163.205 91.5 164C91.1541 163.269 90.7927 162.48 90.4198 161.64Z" fill="#4B4A4D"/>
</g>
<defs>
<filter id="filter0_df_84_223" x="41.7734" y="41.9083" width="21.4531" height="22.1833" filterUnits="userSpaceOnUse" color-interpolation-filters="sRGB">
<feFlood flood-opacity="0" result="BackgroundImageFix"/>
<feColorMatrix in="SourceAlpha" type="matrix" values="0 0 0 0 0 0 0 0 0 0 0 0 0 0 0 0 0 0 127 0" result="hardAlpha"/>
<feOffset dx="4" dy="4"/>
<feGaussianBlur stdDeviation="2"/>
<feComposite in2="hardAlpha" operator="out"/>
<feColorMatrix type="matrix" values="0 0 0 0 0.298039 0 0 0 0 0.294118 0 0 0 0 0.305882 0 0 0 1 0"/>
<feBlend mode="normal" in2="BackgroundImageFix" result="effect1_dropShadow_84_223"/>
<feBlend mode="normal" in="SourceGraphic" in2="effect1_dropShadow_84_223" result="shape"/>
<feGaussianBlur stdDeviation="2" result="effect2_foregroundBlur_84_223"/>
</filter>
<filter id="filter1_df_84_223" x="34.5" y="41" width="65.0503" height="57.5" filterUnits="userSpaceOnUse" color-interpolation-filters="sRGB">
<feFlood flood-opacity="0" result="BackgroundImageFix"/>
<feColorMatrix in="SourceAlpha" type="matrix" values="0 0 0 0 0 0 0 0 0 0 0 0 0 0 0 0 0 0 127 0" result="hardAlpha"/>
<feOffset dy="4"/>
<feGaussianBlur stdDeviation="2"/>
<feComposite in2="hardAlpha" operator="out"/>
<feColorMatrix type="matrix" values="0 0 0 0 0.389274 0 0 0 0 0.389274 0 0 0 0 0.389274 0 0 0 0.25 0"/>
<feBlend mode="normal" in2="BackgroundImageFix" result="effect1_dropShadow_84_223"/>
<feBlend mode="normal" in="SourceGraphic" in2="effect1_dropShadow_84_223" result="shape"/>
<feGaussianBlur stdDeviation="1" result="effect2_foregroundBlur_84_223"/>
</filter>
<filter id="filter2_f_84_223" x="37.5" y="90" width="68.5" height="76" filterUnits="userSpaceOnUse" color-interpolation-filters="sRGB">
<feFlood flood-opacity="0" result="BackgroundImageFix"/>
<feBlend mode="normal" in="SourceGraphic" in2="BackgroundImageFix" result="shape"/>
<feGaussianBlur stdDeviation="1" result="effect1_foregroundBlur_84_223"/>
</filter>
</defs>
</svg>
