<svg width="128" height="201" viewBox="0 0 128 201" fill="none" xmlns="http://www.w3.org/2000/svg">
<path fill-rule="evenodd" clip-rule="evenodd" d="M63 13.2838L46 50.5L23.5 24.5L33 70.5V81.5C29.8333 81.6667 23.5 83.8 23.5 91C23.3333 93 26.2 97 39 97C39.8333 112.167 38.9 145.3 28.5 156.5H19.5V171.5C13.6667 171.833 2 177.7 2 198.5H63H64.5H125.5C125.5 177.7 113.833 171.833 108 171.5V156.5H99C88.6 145.3 87.6667 112.167 88.5 97C101.3 97 104.167 93 104 91C104 83.8 97.6667 81.6667 94.5 81.5V70.5L104 24.5L81.5 50.5L64.5 13.2838V10L63.75 11.6419L63 10V13.2838Z" fill="#646367"/>
<path d="M46 50.5L44.4877 51.8088L46.5254 54.1634L47.8192 51.331L46 50.5ZM63 13.2838L64.8192 14.1148L65 13.7189V13.2838H63ZM23.5 24.5L25.0123 23.1912L19.9886 17.386L21.5413 24.9045L23.5 24.5ZM33 70.5H35V70.2956L34.9587 70.0955L33 70.5ZM33 81.5L33.1051 83.4972L35 83.3975V81.5H33ZM23.5 91L25.4931 91.1661L25.5 91.0832V91H23.5ZM39 97L40.997 96.8903L40.8931 95H39V97ZM28.5 156.5V158.5H29.3721L29.9656 157.861L28.5 156.5ZM19.5 156.5V154.5H17.5V156.5H19.5ZM19.5 171.5L19.6141 173.497L21.5 173.389V171.5H19.5ZM2 198.5H0V200.5H2V198.5ZM125.5 198.5V200.5H127.5V198.5H125.5ZM108 171.5H106V173.389L107.886 173.497L108 171.5ZM108 156.5H110V154.5H108V156.5ZM99 156.5L97.5344 157.861L98.1279 158.5H99V156.5ZM88.5 97V95H86.6069L86.503 96.8903L88.5 97ZM104 91H102V91.0832L102.007 91.1661L104 91ZM94.5 81.5H92.5V83.3975L94.3949 83.4972L94.5 81.5ZM94.5 70.5L92.5413 70.0955L92.5 70.2956V70.5H94.5ZM104 24.5L105.959 24.9045L107.511 17.386L102.488 23.1912L104 24.5ZM81.5 50.5L79.6808 51.331L80.9746 54.1634L83.0123 51.8088L81.5 50.5ZM64.5 13.2838H62.5V13.7189L62.6808 14.1148L64.5 13.2838ZM64.5 10H66.5L62.6808 9.16901L64.5 10ZM63.75 11.6419L61.9308 12.4729L63.75 16.4554L65.5692 12.4729L63.75 11.6419ZM63 10L64.8192 9.16901L61 10H63ZM47.8192 51.331L64.8192 14.1148L61.1808 12.4528L44.1808 49.669L47.8192 51.331ZM21.9877 25.8088L44.4877 51.8088L47.5123 49.1912L25.0123 23.1912L21.9877 25.8088ZM34.9587 70.0955L25.4587 24.0955L21.5413 24.9045L31.0413 70.9045L34.9587 70.0955ZM35 81.5V70.5H31V81.5H35ZM25.5 91C25.5 88.0901 26.7356 86.3345 28.2467 85.2242C29.8467 84.0486 31.8225 83.5647 33.1051 83.4972L32.8949 79.5028C31.0108 79.6019 28.2366 80.268 25.8783 82.0008C23.4311 83.7988 21.5 86.7099 21.5 91H25.5ZM39 95C32.766 95 29.2275 94.019 27.3439 92.9935C25.4381 91.9559 25.5003 91.0796 25.4931 91.1661L21.5069 90.8339C21.333 92.9204 22.7452 95.0441 25.4311 96.5065C28.1392 97.981 32.434 99 39 99V95ZM29.9656 157.861C32.8596 154.744 34.9795 150.247 36.5543 145.208C38.1391 140.136 39.2241 134.343 39.9474 128.482C41.3941 116.762 41.4187 104.565 40.997 96.8903L37.003 97.1097C37.4146 104.601 37.3893 116.555 35.9776 127.993C35.2718 133.711 34.2255 139.249 32.7364 144.014C31.2372 148.812 29.3404 152.656 27.0344 155.139L29.9656 157.861ZM19.5 158.5H28.5V154.5H19.5V158.5ZM21.5 171.5V156.5H17.5V171.5H21.5ZM4 198.5C4 188.486 6.8001 182.324 10.0584 178.652C13.3468 174.947 17.2224 173.633 19.6141 173.497L19.3859 169.503C15.9442 169.7 11.0698 171.486 7.06659 175.997C3.03323 180.543 0 187.714 0 198.5H4ZM63 196.5H2V200.5H63V196.5ZM63 200.5H64.5V196.5H63V200.5ZM64.5 200.5H125.5V196.5H64.5V200.5ZM127.5 198.5C127.5 187.714 124.467 180.543 120.433 175.997C116.43 171.486 111.556 169.7 108.114 169.503L107.886 173.497C110.278 173.633 114.153 174.947 117.442 178.652C120.7 182.324 123.5 188.486 123.5 198.5H127.5ZM110 171.5V156.5H106V171.5H110ZM108 154.5H99V158.5H108V154.5ZM100.466 155.139C98.1596 152.656 96.2628 148.812 94.7636 144.014C93.2745 139.249 92.2282 133.711 91.5224 127.993C90.1107 116.555 90.0854 104.601 90.497 97.1097L86.503 96.8903C86.0813 104.565 86.1059 116.762 87.5526 128.482C88.2759 134.343 89.3609 140.136 90.9457 145.208C92.5205 150.247 94.6404 154.744 97.5344 157.861L100.466 155.139ZM88.5 99C95.066 99 99.3608 97.981 102.069 96.5065C104.755 95.0441 106.167 92.9204 105.993 90.8339L102.007 91.1661C102 91.0796 102.062 91.9559 100.156 92.9935C98.2725 94.019 94.734 95 88.5 95V99ZM106 91C106 86.7099 104.069 83.7988 101.622 82.0008C99.2634 80.268 96.4892 79.6019 94.6051 79.5028L94.3949 83.4972C95.6775 83.5647 97.6533 84.0486 99.2533 85.2242C100.764 86.3345 102 88.0901 102 91H106ZM96.5 81.5V70.5H92.5V81.5H96.5ZM96.4587 70.9045L105.959 24.9045L102.041 24.0955L92.5413 70.0955L96.4587 70.9045ZM102.488 23.1912L79.9877 49.1912L83.0123 51.8088L105.512 25.8088L102.488 23.1912ZM83.3192 49.669L66.3192 12.4528L62.6808 14.1148L79.6808 51.331L83.3192 49.669ZM62.5 10V13.2838H66.5V10H62.5ZM65.5692 12.4729L66.3192 10.831L62.6808 9.16901L61.9308 10.8109L65.5692 12.4729ZM65.5692 10.8109L64.8192 9.16901L61.1808 10.831L61.9308 12.4729L65.5692 10.8109ZM61 10V13.2838H65V10H61Z" fill="black"/>
<path d="M38.5 97.5H89.5" stroke="black" stroke-width="4"/>
<circle cx="24" cy="27" r="8" fill="#F7F1DF" stroke="black" stroke-width="4"/>
<circle cx="102" cy="27" r="8" fill="#F7F1DF" stroke="black" stroke-width="4"/>
<circle cx="63" cy="10" r="8" fill="#F7F1DF" stroke="black" stroke-width="4"/>
<rect x="35" y="72" width="57" height="8" fill="#F7F1DF" stroke="black" stroke-width="4"/>
<rect x="22" y="159" width="84" height="11" fill="#F7F1DF" stroke="black" stroke-width="4"/>
<g filter="url(#filter0_f_17_547)">
<path d="M33.5 69.5C61.1 69.1 70.6667 44.6667 72 32.5L72.5 31.5L81.5 51L96 34.5C97.2 36.5 99.8333 37 101 37V38L93.5 69.5H33.5Z" fill="#4B4A4D"/>
</g>
<g filter="url(#filter1_f_17_547)">
<path d="M87.5 157C86.7 118.2 79.1667 101.833 75.5 98.5H87.5C85.9 132.5 94.1667 151.667 98.5 157H87.5Z" fill="#4B4A4D"/>
</g>
<defs>
<filter id="filter0_f_17_547" x="31.5" y="29.5" width="71.5" height="42" filterUnits="userSpaceOnUse" color-interpolation-filters="sRGB">
<feFlood flood-opacity="0" result="BackgroundImageFix"/>
<feBlend mode="normal" in="SourceGraphic" in2="BackgroundImageFix" result="shape"/>
<feGaussianBlur stdDeviation="1" result="effect1_foregroundBlur_17_547"/>
</filter>
<filter id="filter1_f_17_547" x="73.5" y="96.5" width="27" height="62.5" filterUnits="userSpaceOnUse" color-interpolation-filters="sRGB">
<feFlood flood-opacity="0" result="BackgroundImageFix"/>
<feBlend mode="normal" in="SourceGraphic" in2="BackgroundImageFix" result="shape"/>
<feGaussianBlur stdDeviation="1" result="effect1_foregroundBlur_17_547"/>
</filter>
</defs>
</svg>
