<svg width="136" height="160" viewBox="0 0 136 160" fill="none" xmlns="http://www.w3.org/2000/svg">
<path d="M15.013 42.5L60.513 23V17C56.5131 10.6 57.8463 4.33333 59.0129 2H68.5129L95.0129 12.5C115.813 19.7 123.68 44.1667 125.013 55.5L123.513 120.5C120.713 141.3 110.68 147.833 106.013 148.5H18.0129C11.6129 144.9 13.3463 134 15.013 129C16.2131 115.8 31.8463 104.5 39.5129 100.5C51.9129 94.5 57.6796 85.6667 59.0129 82H53.0129C50.2129 78.4 45.8463 77.5 44.0129 77.5H32.0129C33.2129 80.7 28.5129 84.8333 26.0129 86.5H11.0129V82C22.2129 78.4 24.3463 70.8333 24.0129 67.5H18.0129C12.8129 66.7 5.17968 71.1667 2.01304 73.5V47C1.61304 42.6 10.513 42.1667 15.013 42.5Z" fill="#646367" stroke="black" stroke-width="4"/>
<circle cx="10.5" cy="51.5" r="3.5" fill="black"/>
<circle cx="69" cy="41" r="6" fill="black"/>
<path d="M52.5 81.5C63.3333 82.3333 84.8 78.4 84 56" stroke="black" stroke-width="3"/>
<g filter="url(#filter0_f_17_460)">
<path d="M77 121.5C109 97.1 104.333 55.3333 98 37.5V36C123.2 56 114.5 111.667 107 137L115.5 139.5C110.7 146.3 105.5 148 103.5 148H61.5C53.3333 149.333 45 145.9 77 121.5Z" fill="#4A494C"/>
</g>
<path d="M92.3539 33.9194C90.686 21.4334 82.0897 11.8119 78 8.56195C101.878 6.78511 120.054 33.8671 126.158 47.6303C139.249 94.5003 125.166 129.453 116.488 141.071L106.639 139.022C126.624 70.0341 105.443 40.2086 92.3539 33.9194Z" fill="#4B4A4D"/>
<path d="M102.749 21.3314L105.062 23.4678C106.685 24.9667 106.785 27.4974 105.286 29.1202L100.676 34.1107C99.337 35.5608 97.0757 35.6505 95.6256 34.3111C94.1755 32.9717 94.0858 30.7104 95.4252 29.2603L102.749 21.3314Z" fill="#807E84"/>
<path d="M124.68 62.1818L126.993 64.3182C128.616 65.8171 128.716 68.3478 127.217 69.9706L122.608 74.9611C121.268 76.4112 119.007 76.5009 117.557 75.1615C116.107 73.8221 116.017 71.5608 117.356 70.1107L124.68 62.1818Z" fill="#807E84"/>
<path d="M121.68 49.1818L123.993 51.3182C125.616 52.8171 125.716 55.3478 124.217 56.9706L119.608 61.9611C118.268 63.4112 116.007 63.5009 114.557 62.1615C113.107 60.8221 113.017 58.5608 114.356 57.1107L121.68 49.1818Z" fill="#807E84"/>
<path d="M116.749 39.1818L119.062 41.3182C120.685 42.8171 120.785 45.3478 119.286 46.9706L114.676 51.9611C113.337 53.4112 111.076 53.5009 109.626 52.1615C108.175 50.8221 108.086 48.5608 109.425 47.1107L116.749 39.1818Z" fill="#807E84"/>
<path d="M110.749 29.1818L113.062 31.3182C114.685 32.8171 114.785 35.3478 113.286 36.9706L108.676 41.9611C107.337 43.4112 105.076 43.5009 103.626 42.1615C102.175 40.8221 102.086 38.5608 103.425 37.1107L110.749 29.1818Z" fill="#807E84"/>
<rect x="30.5" y="149.5" width="69" height="9" fill="#646367" stroke="black" stroke-width="3"/>
<defs>
<filter id="filter0_f_17_460" x="52.0637" y="34" width="65.4363" height="116.246" filterUnits="userSpaceOnUse" color-interpolation-filters="sRGB">
<feFlood flood-opacity="0" result="BackgroundImageFix"/>
<feBlend mode="normal" in="SourceGraphic" in2="BackgroundImageFix" result="shape"/>
<feGaussianBlur stdDeviation="1" result="effect1_foregroundBlur_17_460"/>
</filter>
</defs>
</svg>
