<svg width="136" height="193" viewBox="0 0 136 193" fill="none" xmlns="http://www.w3.org/2000/svg">
<path d="M106.728 40.083C106.728 61.1157 89.6779 78.166 68.6452 78.166C47.6125 78.166 30.5622 61.1157 30.5622 40.083C30.5622 19.0503 47.6125 2 68.6452 2C89.6779 2 106.728 19.0503 106.728 40.083Z" fill="#646367"/>
<path d="M15.7521 82.9264C15.7521 76.2076 21.1988 70.761 27.9175 70.761H109.373C116.092 70.761 121.538 76.2076 121.538 82.9264C121.538 89.6452 116.092 95.0918 109.373 95.0918H27.9175C21.1988 95.0918 15.7521 89.6452 15.7521 82.9264Z" fill="#646367"/>
<path d="M114.133 155.39H67.5873V190.299H133.175C133.351 192.591 133.598 195.06 133.175 186.597C132.752 178.134 120.304 172.139 114.133 170.2V155.39Z" fill="#646367"/>
<path d="M21.2752 155.39H67.8211V190.299H2.23364C2.05733 192.591 1.81049 195.06 2.23364 186.597C2.65679 178.134 15.1043 172.139 21.2752 170.2V155.39Z" fill="#646367"/>
<path d="M69.7031 95.0918H48.5458C52.7773 118.773 38.3198 145.158 30.5622 155.39H69.7031V95.0918Z" fill="#646367"/>
<path d="M67.5873 95.0918H88.7446C84.5131 118.773 98.9706 145.158 106.728 155.39H67.5873L67.5873 95.0918Z" fill="#646367"/>
<path d="M83.3018 71.4245C82.7474 71.4752 82.8001 71.5 83.3018 71.4245C84.1961 71.3427 86.6706 71.1936 91.389 71.2899C108.726 71.6437 112.479 71.5291 112.109 71.379C111.892 71.34 111.685 71.3105 111.488 71.2899C111.806 71.3188 112.037 71.3496 112.109 71.379C112.479 71.5291 108.726 71.6437 91.389 71.2899C86.6706 71.1936 84.1961 71.3427 83.3018 71.4245Z" fill="#646367"/>
<path d="M68.1161 2.52887C80.8104 2.52887 106.305 10.0397 106.728 40.083C107.257 77.637 65.4714 70.7609 91.389 71.2899C112.123 71.713 113.428 71.4662 111.488 71.2899C114.838 71.6425 121.538 74.5693 121.538 83.4553C121.538 94.5628 110.431 95.0918 104.083 95.0918C99.0056 95.0918 92.0943 95.0918 89.2733 95.0918C86.4524 102.497 85.9939 125.029 106.728 155.919H114.133V170.2C120.48 171.434 133.175 177.182 133.175 190.299" stroke="black" stroke-width="4"/>
<path d="M134.233 190.828H73.406H2.52922C1.29505 185.539 3.26973 174.114 21.0418 170.729V155.919H30.0335C38.8491 144.282 54.7875 115.826 48.0172 95.0918H26.331C22.8048 94.2103 15.7524 90.6488 15.7524 83.4554C15.7524 76.2619 22.0996 71.9952 25.2732 70.761H45.9015C39.5543 64.7665 27.7063 49.3922 31.0914 35.8516C35.3229 18.9258 44.3147 1.47108 68.1166 2.52895" stroke="black" stroke-width="4"/>
<g filter="url(#filter0_f_91_3)">
<path d="M47 69C79.4 69 99.5 47.6667 105.5 37C105.5 57 94.1667 68.3333 88.5 71.5H112.5C115.5 72 121.4 75.2 121 84C120.6 92.8 113.5 95.3333 110 95.5H88.5C81.3 109.5 96.8333 141.333 105.5 155.5C68.7 95.5 51.1667 72.8333 47 69Z" fill="#48474A"/>
</g>
<g filter="url(#filter1_df_91_3)">
<ellipse cx="49.718" cy="23.2804" rx="7.75909" ry="5.11395" transform="rotate(-53.6462 49.718 23.2804)" fill="#8D8A95"/>
</g>
<path d="M114 156H21V170H114V156Z" stroke="black" stroke-width="4"/>
<defs>
<filter id="filter0_f_91_3" x="43.5" y="33.5" width="81.0194" height="125.5" filterUnits="userSpaceOnUse" color-interpolation-filters="sRGB">
<feFlood flood-opacity="0" result="BackgroundImageFix"/>
<feBlend mode="normal" in="SourceGraphic" in2="BackgroundImageFix" result="shape"/>
<feGaussianBlur stdDeviation="1.75" result="effect1_foregroundBlur_91_3"/>
</filter>
<filter id="filter1_df_91_3" x="39.5441" y="12.3334" width="20.3479" height="25.894" filterUnits="userSpaceOnUse" color-interpolation-filters="sRGB">
<feFlood flood-opacity="0" result="BackgroundImageFix"/>
<feColorMatrix in="SourceAlpha" type="matrix" values="0 0 0 0 0 0 0 0 0 0 0 0 0 0 0 0 0 0 127 0" result="hardAlpha"/>
<feOffset dy="4"/>
<feGaussianBlur stdDeviation="2"/>
<feComposite in2="hardAlpha" operator="out"/>
<feColorMatrix type="matrix" values="0 0 0 0 0 0 0 0 0 0 0 0 0 0 0 0 0 0 0.25 0"/>
<feBlend mode="normal" in2="BackgroundImageFix" result="effect1_dropShadow_91_3"/>
<feBlend mode="normal" in="SourceGraphic" in2="effect1_dropShadow_91_3" result="shape"/>
<feGaussianBlur stdDeviation="2" result="effect2_foregroundBlur_91_3"/>
</filter>
</defs>
</svg>
