<svg width="126" height="210" viewBox="0 0 126 210" fill="none" xmlns="http://www.w3.org/2000/svg">
<path fill-rule="evenodd" clip-rule="evenodd" d="M63.5001 207H62.9999H3V193.5C12.6 193.5 17 185.167 18 181V166H31.0001C43.8002 147.6 45.0001 119.333 44 107.5H28.0001C21.6001 107.5 20.6668 102.833 21.0001 100.5C21.0001 94.1 25.6668 92.5 28.0001 92.5H54.0001C28.0001 78.5 27.8334 65.3333 31.0001 60.5C48.1733 46.0206 57.811 27.2184 61.8222 15.9651C58.5509 15.6262 56 12.861 56 9.5C56 5.91015 58.9101 3 62.5 3C66.0899 3 69 5.91015 69 9.5C69 12.3658 67.1454 14.7985 64.5708 15.6632C68.5162 26.8797 78.1722 45.8904 95.4999 60.5C98.6666 65.3333 98.4999 78.5 72.4999 92.5H98.4999C100.833 92.5 105.5 94.1 105.5 100.5C105.833 102.833 104.9 107.5 98.4999 107.5H82.5C81.4999 119.333 82.6998 147.6 95.4999 166H108.5V181C109.5 185.167 113.9 193.5 123.5 193.5V207H63.5001Z" fill="#F7F1DF"/>
<path d="M3 207H0.5V209.5H3V207ZM3 193.5V191H0.5V193.5H3ZM18 181L20.431 181.583L20.5 181.296V181H18ZM18 166V163.5H15.5V166H18ZM31.0001 166V168.5H32.3064L33.0523 167.428L31.0001 166ZM44 107.5L46.4911 107.289L46.2976 105H44V107.5ZM21.0001 100.5L23.475 100.854L23.5001 100.678V100.5H21.0001ZM54.0001 92.5V95L55.1853 90.2988L54.0001 92.5ZM31.0001 60.5L29.3886 58.5887L29.1092 58.8243L28.9089 59.1299L31.0001 60.5ZM61.8222 15.9651L64.1771 16.8045L65.2458 13.8064L62.0799 13.4784L61.8222 15.9651ZM64.5708 15.6632L63.7749 13.2933L61.3711 14.1006L62.2125 16.4927L64.5708 15.6632ZM95.4999 60.5L97.5911 59.1299L97.3908 58.8243L97.1114 58.5887L95.4999 60.5ZM72.4999 92.5L71.3147 90.2988L72.4999 95V92.5ZM105.5 100.5H103V100.678L103.025 100.854L105.5 100.5ZM82.5 107.5V105H80.2024L80.0089 107.289L82.5 107.5ZM95.4999 166L93.4476 167.428L94.1936 168.5H95.4999V166ZM108.5 166H111V163.5H108.5V166ZM108.5 181H106V181.296L106.069 181.583L108.5 181ZM123.5 193.5H126V191H123.5V193.5ZM123.5 207V209.5H126V207H123.5ZM62.9999 209.5H63.5001V204.5H62.9999V209.5ZM3 209.5H62.9999V204.5H3V209.5ZM0.5 193.5V207H5.5V193.5H0.5ZM15.569 180.417C15.1549 182.142 13.9867 184.863 11.8954 187.109C9.85651 189.298 6.98816 191 3 191V196C8.61184 196 12.7435 193.535 15.5546 190.516C18.3133 187.554 19.8451 184.025 20.431 181.583L15.569 180.417ZM15.5 166V181H20.5V166H15.5ZM31.0001 163.5H18V168.5H31.0001V163.5ZM41.5089 107.711C41.992 113.428 41.9488 123.246 40.2079 133.884C38.4635 144.543 35.0504 155.8 28.9478 164.572L33.0523 167.428C39.7498 157.8 43.3367 145.724 45.1423 134.691C46.9513 123.637 47.008 113.406 46.4911 107.289L41.5089 107.711ZM28.0001 110H44V105H28.0001V110ZM18.5252 100.146C18.2951 101.758 18.4789 104.179 19.9078 106.281C21.4411 108.536 24.1178 110 28.0001 110V105C25.4824 105 24.4924 104.131 24.0424 103.469C23.488 102.654 23.3718 101.576 23.475 100.854L18.5252 100.146ZM28.0001 90C26.3594 90 24.0176 90.5395 22.0366 92.1695C19.9533 93.8838 18.5001 96.6169 18.5001 100.5H23.5001C23.5001 97.9831 24.3802 96.7162 25.2136 96.0305C26.1492 95.2605 27.3074 95 28.0001 95V90ZM54.0001 90H28.0001V95H54.0001V90ZM28.9089 59.1299C26.7472 62.4294 26.1086 67.907 29.3381 74.2035C32.551 80.4675 39.5703 87.5695 52.8148 94.7012L55.1853 90.2988C42.4298 83.4305 36.3658 76.9492 33.787 71.9215C31.2249 66.9263 32.0863 63.4039 33.0912 61.8701L28.9089 59.1299ZM59.4674 15.1257C55.5577 26.0941 46.1305 44.473 29.3886 58.5887L32.6116 62.4113C50.2161 47.5683 60.0643 28.3427 64.1771 16.8045L59.4674 15.1257ZM53.5 9.5C53.5 14.1552 57.0324 17.9822 61.5646 18.4518L62.0799 13.4784C60.0694 13.2701 58.5 11.5667 58.5 9.5H53.5ZM62.5 0.5C57.5294 0.5 53.5 4.52944 53.5 9.5H58.5C58.5 7.29086 60.2909 5.5 62.5 5.5V0.5ZM71.5 9.5C71.5 4.52944 67.4706 0.5 62.5 0.5V5.5C64.7091 5.5 66.5 7.29086 66.5 9.5H71.5ZM65.3668 18.0331C68.9286 16.8368 71.5 13.4719 71.5 9.5H66.5C66.5 11.2597 65.3621 12.7602 63.7749 13.2933L65.3668 18.0331ZM97.1114 58.5887C80.2181 44.3453 70.7732 25.762 66.9292 14.8336L62.2125 16.4927C66.2592 27.9974 76.1263 47.4354 93.8884 62.4113L97.1114 58.5887ZM73.6852 94.7012C86.9296 87.5695 93.949 80.4675 97.1619 74.2035C100.391 67.907 99.7528 62.4294 97.5911 59.1299L93.4088 61.8701C94.4137 63.4039 95.2751 66.9263 92.713 71.9215C90.1342 76.9492 84.0702 83.4305 71.3147 90.2988L73.6852 94.7012ZM98.4999 90H72.4999V95H98.4999V90ZM108 100.5C108 96.6169 106.547 93.8838 104.463 92.1695C102.482 90.5395 100.141 90 98.4999 90V95C99.1926 95 100.351 95.2605 101.286 96.0305C102.12 96.7162 103 97.9831 103 100.5H108ZM98.4999 110C102.382 110 105.059 108.536 106.592 106.281C108.021 104.179 108.205 101.758 107.975 100.146L103.025 100.854C103.128 101.576 103.012 102.654 102.458 103.469C102.008 104.131 101.018 105 98.4999 105V110ZM82.5 110H98.4999V105H82.5V110ZM97.5522 164.572C91.4496 155.8 88.0365 144.543 86.2921 133.884C84.5512 123.246 84.5079 113.428 84.9911 107.711L80.0089 107.289C79.492 113.406 79.5487 123.637 81.3577 134.691C83.1633 145.724 86.7502 157.8 93.4476 167.428L97.5522 164.572ZM108.5 163.5H95.4999V168.5H108.5V163.5ZM111 181V166H106V181H111ZM123.5 191C119.512 191 116.643 189.298 114.605 187.109C112.513 184.863 111.345 182.142 110.931 180.417L106.069 181.583C106.655 184.025 108.187 187.554 110.945 190.516C113.757 193.535 117.888 196 123.5 196V191ZM126 207V193.5H121V207H126ZM63.5001 209.5H123.5V204.5H63.5001V209.5Z" fill="black"/>
<rect x="18.5" y="167.5" width="89" height="12" fill="#F7F1DF" stroke="black" stroke-width="5"/>
<g filter="url(#filter0_df_84_222)">
<ellipse cx="51.5" cy="52" rx="3.5" ry="6" transform="rotate(40.6684 51.5 52)" fill="white"/>
</g>
<g filter="url(#filter1_df_84_222)">
<path d="M43 81C76.2 75.4 79.8333 54 77.5 44L96 61C97.6 67 95.3333 71.1667 94 72.5C80 86.9 66.8333 91.1667 62 91.5H54.5C48.5 89.9 42 83.8333 39.5 81H43Z" fill="#D6C9B7"/>
</g>
<g filter="url(#filter2_f_84_222)">
<path d="M91.4198 162.64C65.3313 105.877 51.9527 94.1847 48.5 95.5L40.5 93H44H47.5H52.5H73.5H96.5C103.3 93 105 98 105 100.5C105 104.5 101.667 107.167 100 108H82C76.7321 123.051 85.5049 149.312 91.4198 162.64C91.7775 163.418 92.1375 164.205 92.5 165C92.1541 164.269 91.7927 163.48 91.4198 162.64Z" fill="#D7CAB8"/>
</g>
<defs>
<filter id="filter0_df_84_222" x="42.7734" y="42.9083" width="21.4531" height="22.1833" filterUnits="userSpaceOnUse" color-interpolation-filters="sRGB">
<feFlood flood-opacity="0" result="BackgroundImageFix"/>
<feColorMatrix in="SourceAlpha" type="matrix" values="0 0 0 0 0 0 0 0 0 0 0 0 0 0 0 0 0 0 127 0" result="hardAlpha"/>
<feOffset dx="4" dy="4"/>
<feGaussianBlur stdDeviation="2"/>
<feComposite in2="hardAlpha" operator="out"/>
<feColorMatrix type="matrix" values="0 0 0 0 0.97876 0 0 0 0 0.922788 0 0 0 0 0.754875 0 0 0 1 0"/>
<feBlend mode="normal" in2="BackgroundImageFix" result="effect1_dropShadow_84_222"/>
<feBlend mode="normal" in="SourceGraphic" in2="effect1_dropShadow_84_222" result="shape"/>
<feGaussianBlur stdDeviation="2" result="effect2_foregroundBlur_84_222"/>
</filter>
<filter id="filter1_df_84_222" x="35.5" y="42" width="65.0503" height="57.5" filterUnits="userSpaceOnUse" color-interpolation-filters="sRGB">
<feFlood flood-opacity="0" result="BackgroundImageFix"/>
<feColorMatrix in="SourceAlpha" type="matrix" values="0 0 0 0 0 0 0 0 0 0 0 0 0 0 0 0 0 0 127 0" result="hardAlpha"/>
<feOffset dy="4"/>
<feGaussianBlur stdDeviation="2"/>
<feComposite in2="hardAlpha" operator="out"/>
<feColorMatrix type="matrix" values="0 0 0 0 1 0 0 0 0 0.995394 0 0 0 0 0.995394 0 0 0 0.25 0"/>
<feBlend mode="normal" in2="BackgroundImageFix" result="effect1_dropShadow_84_222"/>
<feBlend mode="normal" in="SourceGraphic" in2="effect1_dropShadow_84_222" result="shape"/>
<feGaussianBlur stdDeviation="1" result="effect2_foregroundBlur_84_222"/>
</filter>
<filter id="filter2_f_84_222" x="38.5" y="91" width="68.5" height="76" filterUnits="userSpaceOnUse" color-interpolation-filters="sRGB">
<feFlood flood-opacity="0" result="BackgroundImageFix"/>
<feBlend mode="normal" in="SourceGraphic" in2="BackgroundImageFix" result="shape"/>
<feGaussianBlur stdDeviation="1" result="effect1_foregroundBlur_84_222"/>
</filter>
</defs>
</svg>
