<svg width="141" height="169" viewBox="0 0 141 169" fill="none" xmlns="http://www.w3.org/2000/svg">
<path d="M15.6155 45.255L63.2218 24.8523V18.5745C59.0367 11.8782 60.4316 5.32148 61.6522 2.88013H71.592L99.3188 13.8662C121.082 21.3995 129.312 46.9988 130.708 58.8568L129.138 126.866C126.208 148.629 115.711 155.464 110.828 156.162H18.7542C12.0579 152.395 13.8716 140.991 15.6155 135.759C16.8711 121.948 33.228 110.125 41.2495 105.94C54.2235 99.6622 60.2572 90.4199 61.6522 86.5835H55.3745C52.4448 82.8169 47.876 81.8752 45.9578 81.8752H33.4023C34.6579 85.2234 29.7403 89.548 27.1246 91.2919H11.4302V86.5835C23.1486 82.8169 25.3807 74.8999 25.032 71.4123H18.7542C13.3135 70.5753 5.32687 75.2487 2.01365 77.6901V49.9633C1.59513 45.3596 10.9071 44.9062 15.6155 45.255Z" fill="#F7F1DF" stroke="black" stroke-width="4"/>
<circle cx="10.8932" cy="54.6717" r="3.66202" fill="black"/>
<circle cx="72.1015" cy="43.6856" r="6.27776" fill="black"/>
<path d="M54.8378 86.0604C66.1726 86.9323 88.633 82.8169 87.796 59.3799" stroke="black" stroke-width="4"/>
<g filter="url(#filter0_f_91_6)">
<path d="M80.472 127.912C113.953 102.383 109.071 58.6824 102.444 40.0235V38.454C128.811 59.3799 119.708 117.624 111.861 144.13L120.754 146.745C115.732 153.86 110.291 155.639 108.199 155.639H64.2545C55.7098 157.034 46.9907 153.442 80.472 127.912Z" fill="#A29788"/>
</g>
<path d="M94.5368 37.2773C92.7917 24.2133 83.7974 14.1464 79.5184 10.746C104.502 8.88687 123.52 37.2226 129.905 51.6229C143.603 100.663 128.868 137.234 119.788 149.389L109.483 147.246C130.394 75.0638 108.232 43.8577 94.5368 37.2773Z" fill="#D6C9B7"/>
<path d="M107.413 23.1064L109.969 25.4674C111.591 26.9663 111.692 29.497 110.193 31.1198L105.244 36.4773C103.843 37.9945 101.477 38.0884 99.9597 36.687V36.687C98.4424 35.2856 98.3485 32.9196 99.75 31.4023L107.413 23.1064Z" fill="#B9AC9A"/>
<path d="M127.359 67.848L129.915 70.2089C131.538 71.7078 131.638 74.2385 130.139 75.8613L125.191 81.2188C123.789 82.7361 121.423 82.8299 119.906 81.4285V81.4285C118.389 80.0271 118.295 77.6611 119.696 76.1439L127.359 67.848Z" fill="#B9AC9A"/>
<path d="M125.22 53.2462L127.776 55.6071C129.399 57.106 129.499 59.6367 128.001 61.2595L123.052 66.617C121.651 68.1342 119.285 68.2281 117.767 66.8267V66.8267C116.25 65.4253 116.156 63.0593 117.558 61.5421L125.22 53.2462Z" fill="#B9AC9A"/>
<path d="M122.061 41.7832L124.617 44.1441C126.24 45.643 126.34 48.1737 124.841 49.7965L119.893 55.1541C118.491 56.6713 116.125 56.7652 114.608 55.3638V55.3638C113.091 53.9624 112.997 51.5963 114.398 50.0791L122.061 41.7832Z" fill="#B9AC9A"/>
<path d="M115.783 31.3203L118.339 33.6812C119.962 35.1801 120.062 37.7108 118.563 39.3336L113.615 44.6911C112.213 46.2083 109.847 46.3022 108.33 44.9008V44.9008C106.813 43.4994 106.719 41.1334 108.12 39.6161L115.783 31.3203Z" fill="#B9AC9A"/>
<rect x="32.25" y="157.639" width="71.3331" height="8.55551" fill="#F7F1DF" stroke="black" stroke-width="4"/>
<defs>
<filter id="filter0_f_91_6" x="54.474" y="36.454" width="68.2803" height="121.442" filterUnits="userSpaceOnUse" color-interpolation-filters="sRGB">
<feFlood flood-opacity="0" result="BackgroundImageFix"/>
<feBlend mode="normal" in="SourceGraphic" in2="BackgroundImageFix" result="shape"/>
<feGaussianBlur stdDeviation="1" result="effect1_foregroundBlur_91_6"/>
</filter>
</defs>
</svg>
