<svg width="124" height="212" viewBox="0 0 124 212" fill="none" xmlns="http://www.w3.org/2000/svg">
<path fill-rule="evenodd" clip-rule="evenodd" d="M68.5 2H67.5H56.5H55.5L57.4746 12.8602L47.5 11.5V11.5714L47 11.5V23.5L47.5 23.4286V23.5L57.4647 22.1412L54.5 34H69.5L66.5353 22.1412L76.5 23.5V23.4286L77 23.5V11.5L76.5 11.5714V11.5L66.5254 12.8602L68.5 2ZM62 48H18.5L35 82.5V94.5C30.1667 95.3333 20.5 98.9 20.5 106.5C20.5 114.1 32.5 115.333 38.5 115C40.6667 122 41.7 142.9 28.5 170.5H17.5V183C12.5 186 2.4 193.7 2 200.5V210H62H122V200.5C121.6 193.7 111.5 186 106.5 183V170.5H95.5C82.3 142.9 83.3333 122 85.5 115C91.5 115.333 103.5 114.1 103.5 106.5C103.5 98.9 93.8333 95.3333 89 94.5V82.5L105.5 48H62Z" fill="#F7F1DF"/>
<path d="M68.5 2L70.4677 2.35777L70.8964 0H68.5V2ZM55.5 2V0H53.1036L53.5323 2.35777L55.5 2ZM57.4746 12.8602L57.2043 14.8418L59.9354 15.2142L59.4423 12.5024L57.4746 12.8602ZM47.5 11.5L47.7702 9.51834L45.5 9.20876V11.5H47.5ZM47.5 11.5714L47.2172 13.5513L49.5 13.8774V11.5714H47.5ZM47 11.5L47.2828 9.5201L45 9.19398V11.5H47ZM47 23.5H45V25.806L47.2828 25.4799L47 23.5ZM47.5 23.4286H49.5V21.1226L47.2172 21.4487L47.5 23.4286ZM47.5 23.5H45.5V25.7912L47.7702 25.4817L47.5 23.5ZM57.4647 22.1412L59.405 22.6262L60.1215 19.7604L57.1945 20.1595L57.4647 22.1412ZM54.5 34L52.5597 33.5149L51.9384 36H54.5V34ZM69.5 34V36H72.0616L71.4403 33.5149L69.5 34ZM66.5353 22.1412L66.8055 20.1595L63.8785 19.7604L64.595 22.6262L66.5353 22.1412ZM76.5 23.5L76.2298 25.4817L78.5 25.7912V23.5H76.5ZM76.5 23.4286L76.7828 21.4487L74.5 21.1226V23.4286H76.5ZM77 23.5L76.7172 25.4799L79 25.806V23.5H77ZM77 11.5H79V9.19398L76.7172 9.5201L77 11.5ZM76.5 11.5714H74.5V13.8774L76.7828 13.5513L76.5 11.5714ZM76.5 11.5H78.5V9.20876L76.2298 9.51834L76.5 11.5ZM66.5254 12.8602L64.5577 12.5024L64.0646 15.2142L66.7956 14.8418L66.5254 12.8602ZM18.5 48V46H15.3265L16.6957 48.8629L18.5 48ZM35 82.5H37V82.0463L36.8043 81.6371L35 82.5ZM35 94.5L35.3398 96.4709L37 96.1847V94.5H35ZM38.5 115L40.4106 114.409L39.9487 112.916L38.3891 113.003L38.5 115ZM28.5 170.5V172.5H29.7604L30.3043 171.363L28.5 170.5ZM17.5 170.5V168.5H15.5V170.5H17.5ZM17.5 183L18.529 184.715L19.5 184.132V183H17.5ZM2 200.5L0.00345125 200.383L0 200.441V200.5H2ZM2 210H0V212H2V210ZM122 210V212H124V210H122ZM122 200.5H124V200.441L123.997 200.383L122 200.5ZM106.5 183H104.5V184.132L105.471 184.715L106.5 183ZM106.5 170.5H108.5V168.5H106.5V170.5ZM95.5 170.5L93.6957 171.363L94.2396 172.5H95.5V170.5ZM85.5 115L85.6109 113.003L84.0513 112.916L83.5894 114.409L85.5 115ZM89 94.5H87V96.1847L88.6602 96.4709L89 94.5ZM89 82.5L87.1957 81.6371L87 82.0463V82.5H89ZM105.5 48L107.304 48.8629L108.673 46H105.5V48ZM67.5 4H68.5V0H67.5V4ZM67.5 0H56.5V4H67.5V0ZM56.5 0H55.5V4H56.5V0ZM53.5323 2.35777L55.5068 13.2179L59.4423 12.5024L57.4677 1.64223L53.5323 2.35777ZM47.2298 13.4817L57.2043 14.8418L57.7448 10.8785L47.7702 9.51834L47.2298 13.4817ZM49.5 11.5714V11.5H45.5V11.5714H49.5ZM47.7828 9.59153L47.2828 9.5201L46.7172 13.4799L47.2172 13.5513L47.7828 9.59153ZM45 11.5V23.5H49V11.5H45ZM47.2828 25.4799L47.7828 25.4085L47.2172 21.4487L46.7172 21.5201L47.2828 25.4799ZM49.5 23.5V23.4286H45.5V23.5H49.5ZM57.1945 20.1595L47.2298 21.5183L47.7702 25.4817L57.7349 24.1228L57.1945 20.1595ZM55.5244 21.6561L52.5597 33.5149L56.4403 34.4851L59.405 22.6262L55.5244 21.6561ZM54.5 36H69.5V32H54.5V36ZM64.595 22.6262L67.5597 34.4851L71.4403 33.5149L68.4756 21.6561L64.595 22.6262ZM66.2651 24.1228L76.2298 25.4817L76.7702 21.5183L66.8055 20.1595L66.2651 24.1228ZM78.5 23.5V23.4286H74.5V23.5H78.5ZM77.2828 21.5201L76.7828 21.4487L76.2172 25.4085L76.7172 25.4799L77.2828 21.5201ZM75 11.5V23.5H79V11.5H75ZM76.7828 13.5513L77.2828 13.4799L76.7172 9.5201L76.2172 9.59153L76.7828 13.5513ZM78.5 11.5714V11.5H74.5V11.5714H78.5ZM76.2298 9.51834L66.2552 10.8785L66.7956 14.8418L76.7702 13.4817L76.2298 9.51834ZM66.5323 1.64223L64.5577 12.5024L68.4932 13.2179L70.4677 2.35777L66.5323 1.64223ZM18.5 50H62V46H18.5V50ZM36.8043 81.6371L20.3043 47.1371L16.6957 48.8629L33.1957 83.3629L36.8043 81.6371ZM37 94.5V82.5H33V94.5H37ZM22.5 106.5C22.5 103.672 24.272 101.414 27.0205 99.6439C29.7593 97.8797 33.1128 96.8549 35.3398 96.4709L34.6602 92.5291C32.0539 92.9784 28.1573 94.1536 24.8545 96.2811C21.5613 98.4024 18.5 101.728 18.5 106.5H22.5ZM38.3891 113.003C35.5346 113.162 31.3023 112.937 27.8672 111.823C24.3361 110.677 22.5 108.933 22.5 106.5H18.5C18.5 111.667 22.6639 114.34 26.6328 115.627C30.6977 116.946 35.4654 117.172 38.6109 116.997L38.3891 113.003ZM30.3043 171.363C43.6642 143.428 42.7611 122.003 40.4106 114.409L36.5894 115.591C38.5722 121.997 39.7358 142.372 26.6957 169.637L30.3043 171.363ZM17.5 172.5H28.5V168.5H17.5V172.5ZM19.5 183V170.5H15.5V183H19.5ZM3.99655 200.617C4.06974 199.373 4.60173 197.945 5.58212 196.381C6.55457 194.83 7.89753 193.257 9.42803 191.75C12.4927 188.734 16.1345 186.152 18.529 184.715L16.471 181.285C13.8655 182.848 9.95734 185.616 6.62197 188.9C4.95247 190.543 3.38293 192.358 2.19288 194.257C1.01077 196.142 0.130261 198.227 0.00345125 200.383L3.99655 200.617ZM4 210V200.5H0V210H4ZM62 208H2V212H62V208ZM62 212H122V208H62V212ZM124 210V200.5H120V210H124ZM123.997 200.383C123.87 198.227 122.989 196.142 121.807 194.257C120.617 192.358 119.048 190.543 117.378 188.9C114.043 185.616 110.135 182.848 107.529 181.285L105.471 184.715C107.865 186.152 111.507 188.734 114.572 191.75C116.102 193.257 117.445 194.83 118.418 196.381C119.398 197.945 119.93 199.373 120.003 200.617L123.997 200.383ZM108.5 183V170.5H104.5V183H108.5ZM106.5 168.5H95.5V172.5H106.5V168.5ZM97.3043 169.637C84.2642 142.372 85.4278 121.997 87.4106 115.591L83.5894 114.409C81.2389 122.003 80.3358 143.428 93.6957 171.363L97.3043 169.637ZM85.3891 116.997C88.5346 117.172 93.3023 116.946 97.3672 115.627C101.336 114.34 105.5 111.667 105.5 106.5H101.5C101.5 108.933 99.6639 110.677 96.1328 111.823C92.6977 112.937 88.4654 113.162 85.6109 113.003L85.3891 116.997ZM105.5 106.5C105.5 101.728 102.439 98.4024 99.1455 96.2811C95.8427 94.1536 91.9461 92.9784 89.3398 92.5291L88.6602 96.4709C90.8872 96.8549 94.2407 97.8797 96.9795 99.6439C99.728 101.414 101.5 103.672 101.5 106.5H105.5ZM91 94.5V82.5H87V94.5H91ZM90.8043 83.3629L107.304 48.8629L103.696 47.1371L87.1957 81.6371L90.8043 83.3629ZM105.5 46H62V50H105.5V46Z" fill="black"/>
<rect x="37" y="85" width="50" height="8" fill="#F7F1DF" stroke="black" stroke-width="4"/>
<path d="M38.5 114.5H86" stroke="black" stroke-width="4"/>
<rect x="19" y="170" width="86" height="11" fill="#F7F1DF" stroke="black" stroke-width="4"/>
<g filter="url(#filter0_f_84_224)">
<path d="M62.5 49C75.3 49 85.1667 72 88.5 83.5L104 49H62.5Z" fill="#D7CAB8"/>
</g>
<g filter="url(#filter1_f_84_224)">
<path d="M80.5 168C82.9 132.4 66.8333 118.833 58.5 116.5L55 115H85C80.2 130.2 88.6667 156.667 93.5 168H80.5Z" fill="#D8CBB9"/>
</g>
<defs>
<filter id="filter0_f_84_224" x="60.5" y="47" width="45.5" height="38.5" filterUnits="userSpaceOnUse" color-interpolation-filters="sRGB">
<feFlood flood-opacity="0" result="BackgroundImageFix"/>
<feBlend mode="normal" in="SourceGraphic" in2="BackgroundImageFix" result="shape"/>
<feGaussianBlur stdDeviation="1" result="effect1_foregroundBlur_84_224"/>
</filter>
<filter id="filter1_f_84_224" x="53" y="113" width="42.5" height="57" filterUnits="userSpaceOnUse" color-interpolation-filters="sRGB">
<feFlood flood-opacity="0" result="BackgroundImageFix"/>
<feBlend mode="normal" in="SourceGraphic" in2="BackgroundImageFix" result="shape"/>
<feGaussianBlur stdDeviation="1" result="effect1_foregroundBlur_84_224"/>
</filter>
</defs>
</svg>
