<svg width="118" height="181" viewBox="0 0 118 181" fill="none" xmlns="http://www.w3.org/2000/svg">
<path fill-rule="evenodd" clip-rule="evenodd" d="M54 2H53.5V14.5H37.5V2H19V41C19.8333 43.3333 24.7 48 37.5 48V63C31.3333 63.1667 19 65.5 19 73.5C19 81.5 31.3333 82.5 37.5 82C39.1667 94.6667 37.8 124.7 19 143.5V156C13.3333 156.833 2 162.5 2 178.5H54H64H116C116 162.5 104.667 156.833 99 156V143.5C80.2 124.7 78.8333 94.6667 80.5 82C86.6667 82.5 99 81.5 99 73.5C99 65.5 86.6667 63.1667 80.5 63V48C93.3 48 98.1667 43.3333 99 41V2H80.5V14.5H64.5V2H64H54Z" fill="#F7F1DF"/>
<path d="M53.5 2V0H51.5V2H53.5ZM53.5 14.5V16.5H55.5V14.5H53.5ZM37.5 14.5H35.5V16.5H37.5V14.5ZM37.5 2H39.5V0H37.5V2ZM19 2V0H17V2H19ZM19 41H17V41.3464L17.1165 41.6727L19 41ZM37.5 48H39.5V46H37.5V48ZM37.5 63L37.554 64.9993L39.5 64.9467V63H37.5ZM37.5 82L39.4829 81.7391L39.2347 79.8528L37.3384 80.0065L37.5 82ZM19 143.5L17.5858 142.086L17 142.672V143.5H19ZM19 156L19.291 157.979L21 157.727V156H19ZM2 178.5H0V180.5H2V178.5ZM116 178.5V180.5H118V178.5H116ZM99 156H97V157.727L98.709 157.979L99 156ZM99 143.5H101V142.672L100.414 142.086L99 143.5ZM80.5 82L80.6616 80.0065L78.7653 79.8528L78.5171 81.7391L80.5 82ZM80.5 63H78.5V64.9467L80.446 64.9993L80.5 63ZM80.5 48V46H78.5V48H80.5ZM99 41L100.883 41.6727L101 41.3464V41H99ZM99 2H101V0H99V2ZM80.5 2V0H78.5V2H80.5ZM80.5 14.5V16.5H82.5V14.5H80.5ZM64.5 14.5H62.5V16.5H64.5V14.5ZM64.5 2H66.5V0H64.5V2ZM53.5 4H54V0H53.5V4ZM55.5 14.5V2H51.5V14.5H55.5ZM37.5 16.5H53.5V12.5H37.5V16.5ZM35.5 2V14.5H39.5V2H35.5ZM19 4H37.5V0H19V4ZM21 41V2H17V41H21ZM37.5 46C31.336 46 27.2399 44.8758 24.6559 43.5856C22.016 42.2676 21.0688 40.8461 20.8835 40.3273L17.1165 41.6727C17.7646 43.4872 19.6674 45.5658 22.8691 47.1644C26.1268 48.7909 30.864 50 37.5 50V46ZM39.5 63V48H35.5V63H39.5ZM21 73.5C21 70.7597 23.0652 68.6743 26.706 67.1589C30.2619 65.6789 34.6245 65.0784 37.554 64.9993L37.446 61.0007C34.2088 61.0882 29.3215 61.7377 25.169 63.4661C21.1014 65.159 17 68.2403 17 73.5H21ZM37.3384 80.0065C34.4024 80.2446 30.0537 80.113 26.5264 79.0262C22.9273 77.9173 21 76.1354 21 73.5H17C17 78.8646 21.2394 81.5827 25.3486 82.8488C29.5296 84.137 34.4309 84.2554 37.6616 83.9935L37.3384 80.0065ZM20.4142 144.914C30.1716 135.157 35.3452 122.551 37.8795 110.874C40.4134 99.1993 40.3452 88.2923 39.4829 81.7391L35.5171 82.2609C36.3215 88.3744 36.4032 98.8174 33.9705 110.026C31.5382 121.232 26.6284 133.043 17.5858 142.086L20.4142 144.914ZM21 156V143.5H17V156H21ZM4 178.5C4 171.023 6.62799 166.119 9.78504 162.981C12.9957 159.789 16.841 158.339 19.291 157.979L18.709 154.021C15.4924 154.494 10.8376 156.294 6.96496 160.144C3.03868 164.047 0 169.977 0 178.5H4ZM54 176.5H2V180.5H54V176.5ZM54 180.5H64V176.5H54V180.5ZM64 180.5H116V176.5H64V180.5ZM118 178.5C118 169.977 114.961 164.047 111.035 160.144C107.162 156.294 102.508 154.494 99.291 154.021L98.709 157.979C101.159 158.339 105.004 159.789 108.215 162.981C111.372 166.119 114 171.023 114 178.5H118ZM101 156V143.5H97V156H101ZM100.414 142.086C91.3716 133.043 86.4618 121.232 84.0295 110.026C81.5968 98.8174 81.6785 88.3744 82.4829 82.2609L78.5171 81.7391C77.6548 88.2923 77.5866 99.1993 80.1205 110.874C82.6548 122.551 87.8284 135.157 97.5858 144.914L100.414 142.086ZM80.3384 83.9935C83.5691 84.2554 88.4704 84.137 92.6514 82.8488C96.7606 81.5827 101 78.8646 101 73.5H97C97 76.1354 95.0727 77.9173 91.4736 79.0262C87.9463 80.113 83.5976 80.2446 80.6616 80.0065L80.3384 83.9935ZM101 73.5C101 68.2403 96.8986 65.159 92.831 63.4661C88.6785 61.7377 83.7912 61.0882 80.554 61.0007L80.446 64.9993C83.3755 65.0784 87.7381 65.6789 91.294 67.1589C94.9348 68.6743 97 70.7597 97 73.5H101ZM82.5 63V48H78.5V63H82.5ZM80.5 50C87.136 50 91.8732 48.7909 95.1309 47.1644C98.3326 45.5658 100.235 43.4872 100.883 41.6727L97.1165 40.3273C96.9312 40.8461 95.984 42.2676 93.3441 43.5856C90.7601 44.8758 86.664 46 80.5 46V50ZM101 41V2H97V41H101ZM99 0H80.5V4H99V0ZM78.5 2V14.5H82.5V2H78.5ZM80.5 12.5H64.5V16.5H80.5V12.5ZM66.5 14.5V2H62.5V14.5H66.5ZM64.5 0H64V4H64.5V0ZM64 0H54V4H64V0Z" fill="black"/>
<path d="M101 145H17V156H101V145Z" fill="#F7F1DF" stroke="black" stroke-width="4"/>
<g filter="url(#filter0_f_91_4)">
<path d="M81.0001 2.5H99.0001V41C97.4002 46.6 86.3335 48.3333 81.0001 48.5V62.5C90.0002 63 99.0001 66.5 99.0001 74.5C99.0001 80.9 87.0001 82.1667 81.0001 82C76.2002 112 91.0001 136.167 99.0001 144.5C66.6001 122.5 59.8334 48.6667 60.5001 14.5H81.0001V2.5Z" fill="#D6C9B7"/>
</g>
<defs>
<filter id="filter0_f_91_4" x="58.9568" y="1" width="41.5433" height="145" filterUnits="userSpaceOnUse" color-interpolation-filters="sRGB">
<feFlood flood-opacity="0" result="BackgroundImageFix"/>
<feBlend mode="normal" in="SourceGraphic" in2="BackgroundImageFix" result="shape"/>
<feGaussianBlur stdDeviation="0.75" result="effect1_foregroundBlur_91_4"/>
</filter>
</defs>
</svg>
