<svg width="368" height="367" viewBox="0 0 368 367" fill="none" xmlns="http://www.w3.org/2000/svg">
<rect x="0.711792" y="0.118103" width="366.328" height="366.328" fill="white"/>
<rect x="9.77087" y="8.32129" width="349.066" height="349.066" fill="#D9D9D9" stroke="black"/>
<rect x="10.1268" y="8.67719" width="43.6512" height="43.6512" fill="#EFD9B4"/>
<rect x="97.4292" y="8.67719" width="43.6512" height="43.6512" fill="#EFD9B4"/>
<rect x="53.778" y="8.67719" width="43.6512" height="43.6512" fill="#494949"/>
<rect x="141.08" y="8.67719" width="43.6512" height="43.6512" fill="#494949"/>
<rect x="184.732" y="8.67719" width="43.6512" height="43.6512" fill="#EFD9B4"/>
<rect x="272.034" y="8.67719" width="43.6512" height="43.6512" fill="#EFD9B4"/>
<rect x="228.383" y="8.67719" width="43.6512" height="43.6512" fill="#494949"/>
<rect x="315.685" y="8.67719" width="43.6512" height="43.6512" fill="#494949"/>
<rect x="359.336" y="95.9796" width="43.6512" height="43.6512" transform="rotate(180 359.336 95.9796)" fill="#EFD9B4"/>
<rect x="272.034" y="95.9796" width="43.6512" height="43.6512" transform="rotate(180 272.034 95.9796)" fill="#EFD9B4"/>
<rect x="315.685" y="95.9796" width="43.6512" height="43.6512" transform="rotate(180 315.685 95.9796)" fill="#494949"/>
<rect x="228.383" y="95.9796" width="43.6512" height="43.6512" transform="rotate(180 228.383 95.9796)" fill="#494949"/>
<rect x="184.732" y="95.9796" width="43.6512" height="43.6512" transform="rotate(180 184.732 95.9796)" fill="#EFD9B4"/>
<rect x="97.4292" y="95.9796" width="43.6512" height="43.6512" transform="rotate(180 97.4292 95.9796)" fill="#EFD9B4"/>
<rect x="141.08" y="95.9796" width="43.6512" height="43.6512" transform="rotate(180 141.08 95.9796)" fill="#494949"/>
<rect x="53.778" y="95.9796" width="43.6512" height="43.6512" transform="rotate(180 53.778 95.9796)" fill="#494949"/>
<rect x="10.1268" y="95.9796" width="43.6512" height="43.6512" fill="#EFD9B4"/>
<rect x="97.4292" y="95.9796" width="43.6512" height="43.6512" fill="#EFD9B4"/>
<rect x="53.7781" y="95.9796" width="43.6512" height="43.6512" fill="#494949"/>
<rect x="141.08" y="95.9796" width="43.6512" height="43.6512" fill="#494949"/>
<rect x="184.732" y="95.9796" width="43.6512" height="43.6512" fill="#EFD9B4"/>
<rect x="272.034" y="95.9796" width="43.6512" height="43.6512" fill="#EFD9B4"/>
<rect x="228.383" y="95.9796" width="43.6512" height="43.6512" fill="#494949"/>
<rect x="315.685" y="95.9796" width="43.6512" height="43.6512" fill="#494949"/>
<rect x="10.1268" y="183.282" width="43.6512" height="43.6512" fill="#EFD9B4"/>
<rect x="97.4292" y="183.282" width="43.6512" height="43.6512" fill="#EFD9B4"/>
<rect x="53.7781" y="183.282" width="43.6512" height="43.6512" fill="#494949"/>
<rect x="141.08" y="183.282" width="43.6512" height="43.6512" fill="#494949"/>
<rect x="184.732" y="183.282" width="43.6512" height="43.6512" fill="#EFD9B4"/>
<rect x="272.034" y="183.282" width="43.6512" height="43.6512" fill="#EFD9B4"/>
<rect x="228.383" y="183.282" width="43.6512" height="43.6512" fill="#494949"/>
<rect x="315.685" y="183.282" width="43.6512" height="43.6512" fill="#494949"/>
<rect x="10.1268" y="270.584" width="43.6512" height="43.6512" fill="#EFD9B4"/>
<rect x="97.4292" y="270.584" width="43.6512" height="43.6512" fill="#EFD9B4"/>
<rect x="53.7781" y="270.584" width="43.6512" height="43.6512" fill="#494949"/>
<rect x="141.08" y="270.584" width="43.6512" height="43.6512" fill="#494949"/>
<rect x="184.732" y="270.584" width="43.6512" height="43.6512" fill="#EFD9B4"/>
<rect x="272.034" y="270.584" width="43.6512" height="43.6512" fill="#EFD9B4"/>
<rect x="228.383" y="270.584" width="43.6512" height="43.6512" fill="#494949"/>
<rect x="315.685" y="270.584" width="43.6512" height="43.6512" fill="#494949"/>
<rect x="359.336" y="183.282" width="43.6512" height="43.6512" transform="rotate(180 359.336 183.282)" fill="#EFD9B4"/>
<rect x="272.034" y="183.282" width="43.6512" height="43.6512" transform="rotate(180 272.034 183.282)" fill="#EFD9B4"/>
<rect x="315.685" y="183.282" width="43.6512" height="43.6512" transform="rotate(180 315.685 183.282)" fill="#494949"/>
<rect x="228.383" y="183.282" width="43.6512" height="43.6512" transform="rotate(180 228.383 183.282)" fill="#494949"/>
<rect x="184.732" y="183.282" width="43.6512" height="43.6512" transform="rotate(180 184.732 183.282)" fill="#EFD9B4"/>
<rect x="97.4292" y="183.282" width="43.6512" height="43.6512" transform="rotate(180 97.4292 183.282)" fill="#EFD9B4"/>
<rect x="141.08" y="183.282" width="43.6512" height="43.6512" transform="rotate(180 141.08 183.282)" fill="#494949"/>
<rect x="53.778" y="183.282" width="43.6512" height="43.6512" transform="rotate(180 53.778 183.282)" fill="#494949"/>
<rect x="359.336" y="270.584" width="43.6512" height="43.6512" transform="rotate(180 359.336 270.584)" fill="#EFD9B4"/>
<rect x="272.034" y="270.584" width="43.6512" height="43.6512" transform="rotate(180 272.034 270.584)" fill="#EFD9B4"/>
<rect x="315.685" y="270.584" width="43.6512" height="43.6512" transform="rotate(180 315.685 270.584)" fill="#494949"/>
<rect x="228.383" y="270.584" width="43.6512" height="43.6512" transform="rotate(180 228.383 270.584)" fill="#494949"/>
<rect x="184.732" y="270.584" width="43.6512" height="43.6512" transform="rotate(180 184.732 270.584)" fill="#EFD9B4"/>
<rect x="97.4292" y="270.584" width="43.6512" height="43.6512" transform="rotate(180 97.4292 270.584)" fill="#EFD9B4"/>
<rect x="141.08" y="270.584" width="43.6512" height="43.6512" transform="rotate(180 141.08 270.584)" fill="#494949"/>
<rect x="53.778" y="270.584" width="43.6512" height="43.6512" transform="rotate(180 53.778 270.584)" fill="#494949"/>
<rect x="359.336" y="357.887" width="43.6512" height="43.6512" transform="rotate(180 359.336 357.887)" fill="#EFD9B4"/>
<rect x="272.034" y="357.887" width="43.6512" height="43.6512" transform="rotate(180 272.034 357.887)" fill="#EFD9B4"/>
<rect x="315.685" y="357.887" width="43.6512" height="43.6512" transform="rotate(180 315.685 357.887)" fill="#494949"/>
<rect x="228.383" y="357.887" width="43.6512" height="43.6512" transform="rotate(180 228.383 357.887)" fill="#494949"/>
<rect x="184.732" y="357.887" width="43.6512" height="43.6512" transform="rotate(180 184.732 357.887)" fill="#EFD9B4"/>
<rect x="97.4292" y="357.887" width="43.6512" height="43.6512" transform="rotate(180 97.4292 357.887)" fill="#EFD9B4"/>
<rect x="141.08" y="357.887" width="43.6512" height="43.6512" transform="rotate(180 141.08 357.887)" fill="#494949"/>
<rect x="53.778" y="357.887" width="43.6512" height="43.6512" transform="rotate(180 53.778 357.887)" fill="#494949"/>
<path d="M257.056 195.42C257.056 199.288 253.921 202.424 250.053 202.424C246.185 202.424 243.05 199.288 243.05 195.42C243.05 191.553 246.185 188.417 250.053 188.417C253.921 188.417 257.056 191.553 257.056 195.42Z" fill="#F7F1DF"/>
<path d="M240.327 203.299C240.327 202.063 241.328 201.062 242.564 201.062H257.542C258.778 201.062 259.779 202.063 259.779 203.299C259.779 204.534 258.778 205.536 257.542 205.536H242.564C241.328 205.536 240.327 204.534 240.327 203.299Z" fill="#F7F1DF"/>
<path d="M258.418 216.624H249.858V223.044H261.919C261.952 223.465 261.997 223.919 261.919 222.363C261.841 220.806 259.552 219.704 258.418 219.347V216.624Z" fill="#F7F1DF"/>
<path d="M241.342 216.624H249.901V223.044H237.841C237.808 223.465 237.763 223.919 237.841 222.363C237.919 220.806 240.207 219.704 241.342 219.347V216.624Z" fill="#F7F1DF"/>
<path d="M250.248 205.536H246.357C247.135 209.891 244.477 214.742 243.05 216.624H250.248V205.536Z" fill="#F7F1DF"/>
<path d="M249.858 205.536H253.749C252.971 209.891 255.629 214.742 257.056 216.624H249.858L249.858 205.536Z" fill="#F7F1DF"/>
<path d="M252.748 201.184C252.646 201.193 252.656 201.198 252.748 201.184C252.913 201.169 253.368 201.141 254.235 201.159C257.423 201.224 258.114 201.203 258.046 201.175C258.006 201.168 257.968 201.163 257.931 201.159C257.99 201.164 258.032 201.17 258.046 201.175C258.114 201.203 257.423 201.224 254.235 201.159C253.368 201.141 252.913 201.169 252.748 201.184Z" fill="#F7F1DF"/>
<path d="M249.956 188.515C252.29 188.515 256.978 189.896 257.056 195.42C257.153 202.326 249.469 201.062 254.235 201.159C258.048 201.237 258.288 201.191 257.931 201.159C258.547 201.224 259.779 201.762 259.779 203.396C259.779 205.439 257.737 205.536 256.57 205.536C255.636 205.536 254.365 205.536 253.846 205.536C253.328 206.898 253.243 211.041 257.056 216.721H258.418V219.347C259.585 219.574 261.919 220.631 261.919 223.043" stroke="black"/>
<path d="M262.114 223.141H250.928H237.895C237.668 222.168 238.031 220.067 241.299 219.445V216.721H242.953C244.574 214.582 247.505 209.349 246.26 205.536H242.272C241.624 205.374 240.327 204.719 240.327 203.396C240.327 202.073 241.494 201.289 242.077 201.062H245.871C244.704 199.96 242.525 197.132 243.147 194.642C243.925 191.53 245.579 188.32 249.956 188.515" stroke="black"/>
<g filter="url(#filter0_df_58_219)">
<circle cx="246.44" cy="191.727" r="1.47111" fill="white"/>
</g>
<g filter="url(#filter1_f_58_219)">
<path d="M246.257 200.738C252.215 200.738 255.911 196.815 257.014 194.854C257.014 198.531 254.93 200.615 253.888 201.198H258.301C258.853 201.29 259.938 201.878 259.864 203.496C259.791 205.114 258.485 205.58 257.842 205.611H253.888C252.564 208.185 255.42 214.039 257.014 216.644C250.247 205.611 247.023 201.443 246.257 200.738Z" fill="#D5C8B6"/>
</g>
<path d="M257.014 216.736H242.947H241.384V219.311H258.393V216.736H257.014Z" stroke="black"/>
<path d="M213.405 108.118C213.405 111.986 210.269 115.121 206.402 115.121C202.534 115.121 199.399 111.986 199.399 108.118C199.399 104.25 202.534 101.115 206.402 101.115C210.269 101.115 213.405 104.25 213.405 108.118Z" fill="#646367"/>
<path d="M196.675 115.996C196.675 114.761 197.677 113.759 198.912 113.759H213.891C215.127 113.759 216.128 114.761 216.128 115.996C216.128 117.232 215.127 118.233 213.891 118.233H198.912C197.677 118.233 196.675 117.232 196.675 115.996Z" fill="#646367"/>
<path d="M214.766 129.322H206.207V135.741H218.268C218.3 136.162 218.346 136.616 218.268 135.06C218.19 133.504 215.901 132.402 214.766 132.045V129.322Z" fill="#646367"/>
<path d="M197.691 129.322H206.25V135.741H194.189C194.157 136.162 194.112 136.616 194.189 135.06C194.267 133.504 196.556 132.402 197.691 132.045V129.322Z" fill="#646367"/>
<path d="M206.596 118.233H202.706C203.484 122.588 200.825 127.44 199.399 129.322H206.596V118.233Z" fill="#646367"/>
<path d="M206.207 118.233H210.098C209.32 122.588 211.978 127.44 213.405 129.322H206.207L206.207 118.233Z" fill="#646367"/>
<path d="M209.097 113.881C208.995 113.891 209.005 113.895 209.097 113.881C209.261 113.866 209.717 113.839 210.584 113.857C213.772 113.922 214.462 113.901 214.394 113.873C214.354 113.866 214.316 113.86 214.28 113.857C214.339 113.862 214.381 113.868 214.394 113.873C214.462 113.901 213.772 113.922 210.584 113.857C209.717 113.839 209.261 113.866 209.097 113.881Z" fill="#646367"/>
<path d="M206.305 101.212C208.639 101.212 213.327 102.593 213.405 108.118C213.502 115.024 205.818 113.759 210.584 113.857C214.397 113.934 214.637 113.889 214.28 113.857C214.896 113.921 216.128 114.46 216.128 116.094C216.128 118.136 214.086 118.233 212.919 118.233C211.985 118.233 210.714 118.233 210.195 118.233C209.676 119.595 209.592 123.739 213.405 129.419H214.767V132.045C215.934 132.272 218.268 133.329 218.268 135.741" stroke="black"/>
<path d="M218.463 135.838H207.277H194.244C194.017 134.866 194.38 132.765 197.648 132.142V129.419H199.302C200.923 127.279 203.854 122.046 202.609 118.234H198.621C197.972 118.071 196.675 117.416 196.675 116.094C196.675 114.771 197.843 113.986 198.426 113.759H202.219C201.052 112.657 198.874 109.83 199.496 107.34C200.274 104.227 201.928 101.018 206.305 101.212" stroke="black"/>
<g filter="url(#filter2_f_58_219)">
<path d="M202.605 113.436C208.563 113.436 212.26 109.513 213.363 107.551C213.363 111.229 211.279 113.313 210.237 113.895H214.65C215.202 113.987 216.287 114.576 216.213 116.194C216.14 117.812 214.834 118.278 214.19 118.309H210.237C208.913 120.883 211.769 126.737 213.363 129.342C206.596 118.309 203.372 114.14 202.605 113.436Z" fill="#48474A"/>
</g>
<g filter="url(#filter3_df_58_219)">
<ellipse cx="202.921" cy="105.028" rx="1.4268" ry="0.940394" transform="rotate(-53.6462 202.921 105.028)" fill="#8D8A95"/>
</g>
<path d="M214.742 129.434H197.641V132.008H214.742V129.434Z" stroke="black"/>
<path fill-rule="evenodd" clip-rule="evenodd" d="M29.6924 273.926H29.5949V276.366H26.4716V273.926H22.8603V281.539C23.0229 281.994 23.9729 282.905 26.4716 282.905V285.833C25.2678 285.866 22.8603 286.321 22.8603 287.883C22.8603 289.444 25.2678 289.64 26.4716 289.542C26.7969 292.015 26.5301 297.877 22.8603 301.547V303.987C21.7541 304.15 19.5417 305.256 19.5417 308.38H29.6924H31.6446H41.7952C41.7952 305.256 39.5829 304.15 38.4767 303.987V301.547C34.8068 297.877 34.5401 292.015 34.8654 289.542C36.0692 289.64 38.4767 289.444 38.4767 287.883C38.4767 286.321 36.0692 285.866 34.8654 285.833V282.905C37.364 282.905 38.314 281.994 38.4767 281.539V273.926H34.8654V276.366H31.7421V273.926H31.6446H29.6924Z" fill="#F7F1DF"/>
<path d="M29.5949 273.926V273.426H29.0949V273.926H29.5949ZM29.5949 276.366V276.866H30.0949V276.366H29.5949ZM26.4716 276.366H25.9716V276.866H26.4716V276.366ZM26.4716 273.926H26.9716V273.426H26.4716V273.926ZM22.8603 273.926V273.426H22.3603V273.926H22.8603ZM22.8603 281.539H22.3603V281.625L22.3894 281.707L22.8603 281.539ZM26.4716 282.905H26.9716V282.405H26.4716V282.905ZM26.4716 285.833L26.4851 286.333L26.9716 286.32V285.833H26.4716ZM26.4716 289.542L26.9673 289.477L26.9053 289.005L26.4312 289.044L26.4716 289.542ZM22.8603 301.547L22.5067 301.194L22.3603 301.34V301.547H22.8603ZM22.8603 303.987L22.933 304.482L23.3603 304.419V303.987H22.8603ZM19.5417 308.38H19.0417V308.88H19.5417V308.38ZM41.7952 308.38V308.88H42.2952V308.38H41.7952ZM38.4767 303.987H37.9767V304.419L38.404 304.482L38.4767 303.987ZM38.4767 301.547H38.9767V301.34L38.8303 301.194L38.4767 301.547ZM34.8654 289.542L34.9058 289.044L34.4317 289.005L34.3697 289.477L34.8654 289.542ZM34.8654 285.833H34.3654V286.32L34.8519 286.333L34.8654 285.833ZM34.8654 282.905V282.405H34.3654V282.905H34.8654ZM38.4767 281.539L38.9476 281.707L38.9767 281.625V281.539H38.4767ZM38.4767 273.926H38.9767V273.426H38.4767V273.926ZM34.8654 273.926V273.426H34.3654V273.926H34.8654ZM34.8654 276.366V276.866H35.3654V276.366H34.8654ZM31.7421 276.366H31.2421V276.866H31.7421V276.366ZM31.7421 273.926H32.2421V273.426H31.7421V273.926ZM29.5949 274.426H29.6924V273.426H29.5949V274.426ZM30.0949 276.366V273.926H29.0949V276.366H30.0949ZM26.4716 276.866H29.5949V275.866H26.4716V276.866ZM25.9716 273.926V276.366H26.9716V273.926H25.9716ZM22.8603 274.426H26.4716V273.426H22.8603V274.426ZM23.3603 281.539V273.926H22.3603V281.539H23.3603ZM26.4716 282.405C25.2813 282.405 24.4992 282.188 24.0133 281.945C23.5133 281.696 23.3546 281.436 23.3311 281.37L22.3894 281.707C22.5286 282.096 22.9262 282.52 23.5666 282.84C24.221 283.167 25.1632 283.405 26.4716 283.405V282.405ZM26.9716 285.833V282.905H25.9716V285.833H26.9716ZM23.3603 287.883C23.3603 287.417 23.7076 287.037 24.4066 286.746C25.0844 286.464 25.9217 286.348 26.4851 286.333L26.4581 285.333C25.8177 285.351 24.8493 285.479 24.0224 285.823C23.2167 286.158 22.3603 286.787 22.3603 287.883H23.3603ZM26.4312 289.044C25.8661 289.09 25.0324 289.063 24.3617 288.857C23.6731 288.645 23.3603 288.322 23.3603 287.883H22.3603C22.3603 289.005 23.2512 289.561 24.0673 289.812C24.9014 290.069 25.8733 290.092 26.512 290.04L26.4312 289.044ZM23.2138 301.901C25.1381 299.977 26.1552 297.494 26.6528 295.202C27.1502 292.91 27.1372 290.768 26.9673 289.477L25.9759 289.607C26.1313 290.789 26.1476 292.814 25.6755 294.99C25.2035 297.164 24.2523 299.448 22.5067 301.194L23.2138 301.901ZM23.3603 303.987V301.547H22.3603V303.987H23.3603ZM20.0417 308.38C20.0417 306.948 20.5435 306.019 21.1387 305.428C21.7473 304.823 22.4757 304.549 22.933 304.482L22.7875 303.493C22.1386 303.588 21.2078 303.949 20.4337 304.719C19.6462 305.501 19.0417 306.687 19.0417 308.38H20.0417ZM29.6924 307.88H19.5417V308.88H29.6924V307.88ZM29.6924 308.88H31.6446V307.88H29.6924V308.88ZM31.6446 308.88H41.7952V307.88H31.6446V308.88ZM42.2952 308.38C42.2952 306.687 41.6908 305.501 40.9033 304.719C40.1292 303.949 39.1984 303.588 38.5495 303.493L38.404 304.482C38.8612 304.549 39.5897 304.823 40.1983 305.428C40.7935 306.019 41.2952 306.948 41.2952 308.38H42.2952ZM38.9767 303.987V301.547H37.9767V303.987H38.9767ZM38.8303 301.194C37.0847 299.448 36.1335 297.164 35.6615 294.99C35.1894 292.814 35.2057 290.789 35.3611 289.607L34.3697 289.477C34.1998 290.768 34.1868 292.91 34.6842 295.202C35.1817 297.494 36.1989 299.977 38.1232 301.901L38.8303 301.194ZM34.825 290.04C35.4637 290.092 36.4356 290.069 37.2697 289.812C38.0858 289.561 38.9767 289.005 38.9767 287.883H37.9767C37.9767 288.322 37.6638 288.645 36.9752 288.857C36.3046 289.063 35.4709 289.09 34.9058 289.044L34.825 290.04ZM38.9767 287.883C38.9767 286.787 38.1203 286.158 37.3146 285.823C36.4877 285.479 35.5193 285.351 34.8789 285.333L34.8519 286.333C35.4153 286.348 36.2526 286.464 36.9303 286.746C37.6294 287.037 37.9767 287.417 37.9767 287.883H38.9767ZM35.3654 285.833V282.905H34.3654V285.833H35.3654ZM34.8654 283.405C36.1737 283.405 37.116 283.167 37.7704 282.84C38.4108 282.52 38.8084 282.096 38.9476 281.707L38.0058 281.37C37.9824 281.436 37.8236 281.696 37.3237 281.945C36.8377 282.188 36.0557 282.405 34.8654 282.405V283.405ZM38.9767 281.539V273.926H37.9767V281.539H38.9767ZM38.4767 273.426H34.8654V274.426H38.4767V273.426ZM34.3654 273.926V276.366H35.3654V273.926H34.3654ZM34.8654 275.866H31.7421V276.866H34.8654V275.866ZM32.2421 276.366V273.926H31.2421V276.366H32.2421ZM31.7421 273.426H31.6446V274.426H31.7421V273.426ZM31.6446 273.426H29.6924V274.426H31.6446V273.426Z" fill="black"/>
<path d="M38.8672 301.84H22.4698V303.987H38.8672V301.84Z" fill="#F7F1DF" stroke="black"/>
<g filter="url(#filter4_f_58_219)">
<path d="M34.963 274.023H38.4767V281.539C38.1644 282.632 36.0041 282.97 34.963 283.003V285.736C36.7198 285.833 38.4767 286.516 38.4767 288.078C38.4767 289.327 36.1342 289.575 34.963 289.542C34.026 295.398 36.915 300.116 38.4767 301.743C32.152 297.448 30.8311 283.035 30.9612 276.366H34.963V274.023Z" fill="#D6C9B7"/>
</g>
<path fill-rule="evenodd" clip-rule="evenodd" d="M337.353 56.6079H337.252V59.1418H334.008V56.6079H330.258V64.5138C330.427 64.9868 331.414 65.9328 334.008 65.9328V68.9735C332.758 69.0073 330.258 69.4803 330.258 71.102C330.258 72.7237 332.758 72.9264 334.008 72.8251C334.346 75.3928 334.069 81.481 330.258 85.292V87.826C329.109 87.9949 326.812 89.1436 326.812 92.387H337.353H339.38H349.921C349.921 89.1436 347.624 87.9949 346.475 87.826V85.292C342.664 81.481 342.387 75.3928 342.725 72.8251C343.975 72.9264 346.475 72.7237 346.475 71.102C346.475 69.4803 343.975 69.0073 342.725 68.9735V65.9328C345.32 65.9328 346.306 64.9868 346.475 64.5138V56.6079H342.725V59.1418H339.482V56.6079H339.38H337.353Z" fill="#646367"/>
<path d="M337.252 56.6079V56.1079H336.752V56.6079H337.252ZM337.252 59.1418V59.6418H337.752V59.1418H337.252ZM334.008 59.1418H333.508V59.6418H334.008V59.1418ZM334.008 56.6079H334.508V56.1079H334.008V56.6079ZM330.258 56.6079V56.1079H329.758V56.6079H330.258ZM330.258 64.5138H329.758V64.6004L329.787 64.6819L330.258 64.5138ZM334.008 65.9328H334.508V65.4328H334.008V65.9328ZM334.008 68.9735L334.022 69.4733L334.508 69.4602V68.9735H334.008ZM334.008 72.8251L334.504 72.7598L334.442 72.2883L333.968 72.3267L334.008 72.8251ZM330.258 85.292L329.905 84.9385L329.758 85.0849V85.292H330.258ZM330.258 87.826L330.331 88.3206L330.758 88.2578V87.826H330.258ZM326.812 92.387H326.312V92.887H326.812V92.387ZM349.921 92.387V92.887H350.421V92.387H349.921ZM346.475 87.826H345.975V88.2578L346.403 88.3206L346.475 87.826ZM346.475 85.292H346.975V85.0849L346.829 84.9385L346.475 85.292ZM342.725 72.8251L342.765 72.3267L342.291 72.2883L342.229 72.7598L342.725 72.8251ZM342.725 68.9735H342.225V69.4602L342.712 69.4733L342.725 68.9735ZM342.725 65.9328V65.4328H342.225V65.9328H342.725ZM346.475 64.5138L346.946 64.6819L346.975 64.6004V64.5138H346.475ZM346.475 56.6079H346.975V56.1079H346.475V56.6079ZM342.725 56.6079V56.1079H342.225V56.6079H342.725ZM342.725 59.1418V59.6418H343.225V59.1418H342.725ZM339.482 59.1418H338.982V59.6418H339.482V59.1418ZM339.482 56.6079H339.982V56.1079H339.482V56.6079ZM337.252 57.1079H337.353V56.1079H337.252V57.1079ZM337.752 59.1418V56.6079H336.752V59.1418H337.752ZM334.008 59.6418H337.252V58.6418H334.008V59.6418ZM333.508 56.6079V59.1418H334.508V56.6079H333.508ZM330.258 57.1079H334.008V56.1079H330.258V57.1079ZM330.758 64.5138V56.6079H329.758V64.5138H330.758ZM334.008 65.4328C332.77 65.4328 331.955 65.2069 331.447 64.9533C330.925 64.6928 330.756 64.4201 330.729 64.3456L329.787 64.6819C329.93 65.0804 330.338 65.5173 331 65.848C331.677 66.1857 332.652 66.4328 334.008 66.4328V65.4328ZM334.508 68.9735V65.9328H333.508V68.9735H334.508ZM330.758 71.102C330.758 70.6061 331.129 70.2069 331.857 69.9039C332.563 69.6097 333.435 69.4892 334.022 69.4733L333.995 68.4737C333.331 68.4916 332.328 68.6244 331.472 68.9807C330.638 69.3281 329.758 69.9762 329.758 71.102H330.758ZM333.968 72.3267C333.38 72.3744 332.511 72.3474 331.812 72.1319C331.094 71.9108 330.758 71.5717 330.758 71.102H329.758C329.758 72.254 330.672 72.8272 331.517 73.0875C332.38 73.3534 333.387 73.3771 334.049 73.3234L333.968 72.3267ZM330.612 85.6456C332.607 83.6507 333.662 81.0765 334.178 78.6984C334.694 76.3207 334.68 74.0987 334.504 72.7598L333.513 72.8903C333.674 74.1192 333.691 76.2252 333.2 78.4863C332.71 80.7469 331.721 83.1223 329.905 84.9385L330.612 85.6456ZM330.758 87.826V85.292H329.758V87.826H330.758ZM327.312 92.387C327.312 90.8959 327.835 89.9263 328.457 89.3081C329.092 88.6767 329.852 88.391 330.331 88.3206L330.185 87.3313C329.515 87.4298 328.552 87.803 327.752 88.599C326.938 89.4083 326.312 90.6347 326.312 92.387H327.312ZM337.353 91.887H326.812V92.887H337.353V91.887ZM337.353 92.887H339.38V91.887H337.353V92.887ZM339.38 92.887H349.921V91.887H339.38V92.887ZM350.421 92.387C350.421 90.6347 349.796 89.4083 348.982 88.599C348.181 87.803 347.218 87.4298 346.548 87.3313L346.403 88.3206C346.881 88.391 347.641 88.6767 348.277 89.3081C348.898 89.9263 349.421 90.8959 349.421 92.387H350.421ZM346.975 87.826V85.292H345.975V87.826H346.975ZM346.829 84.9385C345.013 83.1223 344.024 80.7469 343.533 78.4863C343.042 76.2252 343.059 74.1192 343.221 72.8903L342.229 72.7598C342.053 74.0987 342.04 76.3207 342.556 78.6984C343.072 81.0765 344.127 83.6507 346.122 85.6456L346.829 84.9385ZM342.685 73.3234C343.347 73.3771 344.353 73.3534 345.216 73.0875C346.061 72.8272 346.975 72.254 346.975 71.102H345.975C345.975 71.5717 345.639 71.9108 344.922 72.1319C344.222 72.3474 343.354 72.3744 342.765 72.3267L342.685 73.3234ZM346.975 71.102C346.975 69.9762 346.096 69.3281 345.261 68.9807C344.405 68.6244 343.402 68.4916 342.739 68.4737L342.712 69.4733C343.298 69.4892 344.17 69.6097 344.877 69.9039C345.605 70.2069 345.975 70.6061 345.975 71.102H346.975ZM343.225 68.9735V65.9328H342.225V68.9735H343.225ZM342.725 66.4328C344.081 66.4328 345.057 66.1857 345.733 65.848C346.396 65.5173 346.804 65.0804 346.946 64.6819L346.004 64.3456C345.978 64.4201 345.808 64.6928 345.287 64.9533C344.779 65.2069 343.963 65.4328 342.725 65.4328V66.4328ZM346.975 64.5138V56.6079H345.975V64.5138H346.975ZM346.475 56.1079H342.725V57.1079H346.475V56.1079ZM342.225 56.6079V59.1418H343.225V56.6079H342.225ZM342.725 58.6418H339.482V59.6418H342.725V58.6418ZM339.982 59.1418V56.6079H338.982V59.1418H339.982ZM339.482 56.1079H339.38V57.1079H339.482V56.1079ZM339.38 56.1079H337.353V57.1079H339.38V56.1079Z" fill="black"/>
<path d="M346.881 85.5961H329.853V87.826H346.881V85.5961Z" fill="#646367" stroke="black"/>
<g filter="url(#filter5_f_58_219)">
<path d="M342.827 56.7093H346.475V64.5138C346.151 65.649 343.908 66.0004 342.827 66.0342V68.8722C344.651 68.9735 346.475 69.683 346.475 71.3047C346.475 72.6021 344.043 72.8589 342.827 72.8251C341.854 78.9065 344.854 83.8055 346.475 85.4948C339.907 81.035 338.536 66.0679 338.671 59.1419H342.827V56.7093Z" fill="#49484B"/>
</g>
<path d="M62.8375 195.399L73.5655 190.801V189.386C72.6224 187.877 72.9368 186.4 73.2119 185.85H75.4518L81.7 188.325C86.6042 190.023 88.459 195.792 88.7734 198.464L88.4197 213.79C87.7595 218.694 85.3939 220.234 84.2936 220.392H63.5448C62.0358 219.543 62.4445 216.973 62.8375 215.794C63.1205 212.682 66.8065 210.017 68.6141 209.074C71.5378 207.659 72.8975 205.577 73.2119 204.712H71.7972C71.137 203.863 70.1074 203.651 69.6751 203.651H66.8458C67.1287 204.406 66.0205 205.38 65.4311 205.773H61.8944V204.712C64.5351 203.863 65.0381 202.079 64.9595 201.293H63.5448C62.3188 201.105 60.519 202.158 59.7724 202.708V196.46C59.678 195.422 61.7765 195.32 62.8375 195.399Z" fill="#F7F1DF" stroke="black"/>
<circle cx="61.7734" cy="197.521" r="0.5" fill="black" stroke="black" stroke-width="0.650467"/>
<circle cx="75.5667" cy="195.045" r="0.914686" fill="black" stroke="black"/>
<path d="M71.6763 204.594C74.2306 204.791 79.292 203.863 79.1034 198.582" stroke="black"/>
<g filter="url(#filter6_f_58_219)">
<path d="M77.4528 214.025C84.9978 208.272 83.8975 198.425 82.4043 194.22V193.866C88.3459 198.582 86.2946 211.707 84.5263 217.68L86.5304 218.27C85.3987 219.873 84.1726 220.274 83.7011 220.274H73.7982C71.8727 220.588 69.9079 219.779 77.4528 214.025Z" fill="#A29788"/>
<path d="M77.4528 214.025C84.9978 208.272 83.8975 198.425 82.4043 194.22V193.866C88.3459 198.582 86.2946 211.707 84.5263 217.68L86.5304 218.27C85.3987 219.873 84.1726 220.274 83.7011 220.274H73.7982C71.8727 220.588 69.9079 219.779 77.4528 214.025Z" stroke="black"/>
</g>
<path d="M81.0731 193.376C80.6798 190.432 78.653 188.163 77.6887 187.397C83.3187 186.978 87.6043 193.363 89.0434 196.609C92.1302 207.66 88.8096 215.901 86.7635 218.64L84.4413 218.157C89.1534 201.891 84.1592 194.859 81.0731 193.376Z" fill="#D6C9B7" stroke="black"/>
<path d="M83.552 191.114L83.6571 191.211C83.8772 191.415 83.8908 191.758 83.6875 191.978L82.668 193.082C82.5396 193.221 82.3227 193.229 82.1837 193.101C82.0446 192.972 82.036 192.755 82.1645 192.616L83.552 191.114Z" fill="#B9AC9A" stroke="black" stroke-width="0.842752"/>
<path d="M88.723 200.746L88.8281 200.843C89.0482 201.046 89.0618 201.389 88.8585 201.61L87.839 202.713C87.7106 202.852 87.4937 202.861 87.3547 202.733C87.2156 202.604 87.207 202.387 87.3355 202.248L88.723 200.746Z" fill="#B9AC9A" stroke="black" stroke-width="0.842752"/>
<path d="M88.0156 197.681L88.1207 197.778C88.3408 197.981 88.3544 198.324 88.1511 198.544L87.1316 199.648C87.0032 199.787 86.7863 199.796 86.6473 199.667C86.5082 199.539 86.4996 199.322 86.6281 199.183L88.0156 197.681Z" fill="#B9AC9A" stroke="black" stroke-width="0.842752"/>
<path d="M86.853 195.323L86.9581 195.42C87.1782 195.623 87.1918 195.967 86.9886 196.187L85.969 197.29C85.8406 197.429 85.6238 197.438 85.4847 197.31C85.3456 197.181 85.337 196.964 85.4655 196.825L86.853 195.323Z" fill="#B9AC9A" stroke="black" stroke-width="0.842752"/>
<path d="M85.4383 192.965L85.5435 193.062C85.7635 193.266 85.7771 193.609 85.5739 193.829L84.5544 194.933C84.4259 195.072 84.2091 195.08 84.07 194.952C83.931 194.823 83.9224 194.606 84.0508 194.467L85.4383 192.965Z" fill="#B9AC9A" stroke="black" stroke-width="0.842752"/>
<rect x="66.6354" y="220.774" width="15.9762" height="1.82937" fill="#F7F1DF" stroke="black"/>
<path d="M238.191 65.8224L248.543 61.3858V60.0207C247.633 58.5646 247.936 57.1388 248.202 56.6079H250.363L256.392 58.9969C261.125 60.635 262.914 66.2016 263.218 68.7802L262.877 83.5689C262.239 88.3013 259.957 89.7878 258.895 89.9395H238.873C237.417 89.1204 237.811 86.6405 238.191 85.5029C238.464 82.4996 242.021 79.9286 243.765 79.0186C246.586 77.6534 247.898 75.6437 248.202 74.8095H246.836C246.199 73.9904 245.206 73.7856 244.789 73.7856H242.059C242.332 74.5137 241.262 75.4541 240.693 75.8333H237.281V74.8095C239.829 73.9904 240.314 72.2688 240.238 71.5104H238.873C237.69 71.3284 235.953 72.3447 235.233 72.8755V66.8463C235.142 65.8452 237.167 65.7466 238.191 65.8224Z" fill="#646367" stroke="black"/>
<circle cx="237.164" cy="67.8701" r="0.5" fill="black" stroke="black" stroke-width="0.592635"/>
<circle cx="250.474" cy="65.4811" r="0.865116" fill="black" stroke="black"/>
<path d="M246.72 74.6957C249.185 74.8853 254.069 73.9904 253.887 68.894" stroke="black"/>
<g filter="url(#filter7_f_58_219)">
<path d="M252.294 83.7965C259.575 78.245 258.513 68.7423 257.072 64.6848V64.3436C262.805 68.894 260.826 81.5592 259.12 87.323L261.054 87.8918C259.961 89.4389 258.778 89.8257 258.323 89.8257H248.767C246.909 90.1291 245.013 89.3479 252.294 83.7965Z" fill="#4A494C"/>
<path d="M252.294 83.7965C259.575 78.245 258.513 68.7423 257.072 64.6848V64.3436C262.805 68.894 260.826 81.5592 259.12 87.323L261.054 87.8918C259.961 89.4389 258.778 89.8257 258.323 89.8257H248.767C246.909 90.1291 245.013 89.3479 252.294 83.7965Z" stroke="black"/>
</g>
<path d="M255.787 63.8702C255.408 61.0294 253.452 58.8403 252.521 58.1009C257.954 57.6966 262.09 63.8583 263.478 66.9897C266.457 77.6535 263.253 85.606 261.278 88.2493L259.037 87.7832C263.584 72.087 258.765 65.3011 255.787 63.8702Z" fill="#4B4A4D" stroke="black"/>
<path d="M258.18 61.7127L258.269 61.7945C258.474 61.9841 258.487 62.3041 258.297 62.5094L257.314 63.5744C257.196 63.7015 256.998 63.7094 256.871 63.592C256.744 63.4746 256.736 63.2765 256.853 63.1494L258.18 61.7127Z" fill="#807E84" stroke="black" stroke-width="0.813223"/>
<path d="M263.17 71.007L263.259 71.0889C263.464 71.2784 263.477 71.5984 263.287 71.8037L262.303 72.8688C262.186 72.9958 261.988 73.0037 261.861 72.8863C261.734 72.7689 261.726 72.5708 261.843 72.4437L263.17 71.007Z" fill="#807E84" stroke="black" stroke-width="0.813223"/>
<path d="M262.488 68.0493L262.576 68.1311C262.781 68.3207 262.794 68.6407 262.604 68.8459L261.621 69.911C261.503 70.0381 261.305 70.0459 261.178 69.9286C261.051 69.8112 261.043 69.613 261.161 69.4859L262.488 68.0493Z" fill="#807E84" stroke="black" stroke-width="0.813223"/>
<path d="M261.366 65.7741L261.454 65.8559C261.659 66.0454 261.672 66.3655 261.483 66.5707L260.499 67.6358C260.381 67.7629 260.183 67.7707 260.056 67.6533C259.929 67.536 259.921 67.3378 260.039 67.2107L261.366 65.7741Z" fill="#807E84" stroke="black" stroke-width="0.813223"/>
<path d="M260.001 63.4988L260.089 63.5807C260.294 63.7702 260.307 64.0903 260.118 64.2955L259.134 65.3606C259.016 65.4876 258.818 65.4955 258.691 65.3781C258.564 65.2608 258.556 65.0626 258.674 64.9355L260.001 63.4988Z" fill="#807E84" stroke="black" stroke-width="0.813223"/>
<rect x="241.873" y="90.3257" width="15.3814" height="1.73023" fill="#646367" stroke="black"/>
<g filter="url(#filter8_df_58_219)">
<ellipse cx="115.928" cy="108.581" rx="0.655566" ry="1.12383" transform="rotate(40.6684 115.928 108.581)" fill="white"/>
</g>
<path fill-rule="evenodd" clip-rule="evenodd" d="M294.493 355.869H294.399H283.161V353.341C284.959 353.341 285.783 351.78 285.97 350.999V348.19H288.405C290.803 344.743 291.028 339.449 290.84 337.232H287.843C286.645 337.232 286.47 336.358 286.532 335.921C286.532 334.723 287.406 334.423 287.843 334.423H292.713C287.843 331.801 287.812 329.334 288.405 328.429C291.622 325.717 293.427 322.195 294.178 320.088C293.566 320.024 293.088 319.506 293.088 318.877C293.088 318.204 293.633 317.659 294.305 317.659C294.978 317.659 295.523 318.204 295.523 318.877C295.523 319.413 295.175 319.869 294.693 320.031C295.432 322.132 297.241 325.693 300.486 328.429C301.08 329.334 301.048 331.801 296.178 334.423H301.048C301.485 334.423 302.36 334.723 302.36 335.921C302.422 336.358 302.247 337.232 301.048 337.232H298.052C297.864 339.449 298.089 344.743 300.486 348.19H302.921V350.999C303.109 351.78 303.933 353.341 305.731 353.341V355.869H294.493Z" fill="#F7F1DF"/>
<path d="M283.161 355.869H282.661V356.369H283.161V355.869ZM283.161 353.341V352.841H282.661V353.341H283.161ZM285.97 350.999L286.457 351.116L286.47 351.059V350.999H285.97ZM285.97 348.19V347.69H285.47V348.19H285.97ZM288.405 348.19V348.69H288.667L288.816 348.475L288.405 348.19ZM290.84 337.232L291.338 337.19L291.3 336.732H290.84V337.232ZM286.532 335.921L287.027 335.992L287.032 335.957V335.921H286.532ZM292.713 334.423V334.923L292.95 333.983L292.713 334.423ZM288.405 328.429L288.083 328.047L288.027 328.094L287.987 328.155L288.405 328.429ZM294.178 320.088L294.649 320.255L294.863 319.656L294.23 319.59L294.178 320.088ZM294.693 320.031L294.534 319.557L294.053 319.719L294.222 320.197L294.693 320.031ZM300.486 328.429L300.905 328.155L300.865 328.094L300.809 328.047L300.486 328.429ZM296.178 334.423L295.941 333.983L296.178 334.923V334.423ZM302.36 335.921H301.86V335.957L301.865 335.992L302.36 335.921ZM298.052 337.232V336.732H297.592L297.553 337.19L298.052 337.232ZM300.486 348.19L300.076 348.475L300.225 348.69H300.486V348.19ZM302.921 348.19H303.421V347.69H302.921V348.19ZM302.921 350.999H302.421V351.059L302.435 351.116L302.921 350.999ZM305.731 353.341H306.231V352.841H305.731V353.341ZM305.731 355.869V356.369H306.231V355.869H305.731ZM294.399 356.369H294.493V355.369H294.399V356.369ZM283.161 356.369H294.399V355.369H283.161V356.369ZM282.661 353.341V355.869H283.661V353.341H282.661ZM285.484 350.883C285.408 351.201 285.191 351.706 284.804 352.122C284.427 352.527 283.897 352.841 283.161 352.841V353.841C284.222 353.841 285.004 353.374 285.536 352.803C286.056 352.244 286.346 351.578 286.457 351.116L285.484 350.883ZM285.47 348.19V350.999H286.47V348.19H285.47ZM288.405 347.69H285.97V348.69H288.405V347.69ZM290.342 337.275C290.432 338.343 290.424 340.179 290.099 342.169C289.772 344.163 289.134 346.267 287.995 347.904L288.816 348.475C290.074 346.667 290.747 344.4 291.086 342.331C291.425 340.258 291.436 338.338 291.338 337.19L290.342 337.275ZM287.843 337.732H290.84V336.732H287.843V337.732ZM286.037 335.851C285.993 336.158 286.028 336.62 286.301 337.022C286.596 337.454 287.108 337.732 287.843 337.732V336.732C287.38 336.732 287.206 336.573 287.128 336.46C287.03 336.315 287.009 336.122 287.027 335.992L286.037 335.851ZM287.843 333.923C287.53 333.923 287.084 334.026 286.706 334.336C286.308 334.664 286.032 335.185 286.032 335.921H287.032C287.032 335.459 287.193 335.231 287.342 335.109C287.51 334.97 287.72 334.923 287.843 334.923V333.923ZM292.713 333.923H287.843V334.923H292.713V333.923ZM287.987 328.155C287.575 328.784 287.457 329.823 288.066 331.01C288.672 332.191 289.992 333.526 292.476 334.863L292.95 333.983C290.564 332.698 289.435 331.488 288.956 330.554C288.48 329.627 288.643 328.979 288.824 328.703L287.987 328.155ZM293.707 319.92C292.976 321.971 291.213 325.408 288.083 328.047L288.728 328.811C292.03 326.027 293.878 322.42 294.649 320.255L293.707 319.92ZM292.588 318.877C292.588 319.765 293.262 320.495 294.127 320.585L294.23 319.59C293.869 319.553 293.588 319.247 293.588 318.877H292.588ZM294.305 317.159C293.357 317.159 292.588 317.928 292.588 318.877H293.588C293.588 318.48 293.909 318.159 294.305 318.159V317.159ZM296.023 318.877C296.023 317.928 295.254 317.159 294.305 317.159V318.159C294.702 318.159 295.023 318.48 295.023 318.877H296.023ZM294.853 320.505C295.532 320.277 296.023 319.635 296.023 318.877H295.023C295.023 319.192 294.819 319.461 294.534 319.557L294.853 320.505ZM300.809 328.047C297.65 325.384 295.884 321.908 295.165 319.865L294.222 320.197C294.981 322.355 296.832 326.002 300.164 328.811L300.809 328.047ZM296.416 334.863C298.899 333.526 300.22 332.191 300.826 331.01C301.435 329.823 301.317 328.784 300.905 328.155L300.068 328.703C300.249 328.979 300.412 329.627 299.936 330.554C299.457 331.488 298.327 332.698 295.941 333.983L296.416 334.863ZM301.048 333.923H296.178V334.923H301.048V333.923ZM302.86 335.921C302.86 335.185 302.584 334.664 302.186 334.336C301.808 334.026 301.362 333.923 301.048 333.923V334.923C301.172 334.923 301.382 334.97 301.55 335.109C301.698 335.231 301.86 335.459 301.86 335.921H302.86ZM301.048 337.732C301.784 337.732 302.296 337.454 302.59 337.022C302.864 336.62 302.898 336.158 302.854 335.851L301.865 335.992C301.883 336.122 301.862 336.315 301.763 336.46C301.686 336.573 301.511 336.732 301.048 336.732V337.732ZM298.052 337.732H301.048V336.732H298.052V337.732ZM300.897 347.904C299.758 346.267 299.119 344.163 298.793 342.169C298.467 340.179 298.459 338.343 298.55 337.275L297.553 337.19C297.456 338.338 297.467 340.258 297.806 342.331C298.145 344.4 298.818 346.667 300.076 348.475L300.897 347.904ZM302.921 347.69H300.486V348.69H302.921V347.69ZM303.421 350.999V348.19H302.421V350.999H303.421ZM305.731 352.841C304.994 352.841 304.465 352.527 304.088 352.122C303.701 351.706 303.484 351.201 303.408 350.883L302.435 351.116C302.546 351.578 302.835 352.244 303.356 352.803C303.888 353.374 304.67 353.841 305.731 353.841V352.841ZM306.231 355.869V353.341H305.231V355.869H306.231ZM294.493 356.369H305.731V355.369H294.493V356.369Z" fill="black"/>
<rect x="286.096" y="348.503" width="16.6066" height="2.18418" fill="#F7F1DF" stroke="black"/>
<g filter="url(#filter9_df_58_219)">
<path d="M290.653 332.269C296.871 331.22 297.552 327.212 297.115 325.339L300.58 328.523C300.88 329.647 300.455 330.427 300.205 330.677C297.583 333.374 295.117 334.173 294.212 334.236H292.807C291.683 333.936 290.466 332.8 289.997 332.269H290.653Z" fill="#D6C9B7"/>
</g>
<g filter="url(#filter10_f_58_219)">
<path d="M299.722 347.56C294.836 336.929 292.33 334.739 291.683 334.985L290.185 334.517H290.84H291.496H292.432H296.366H300.674C301.947 334.517 302.266 335.453 302.266 335.921C302.266 336.671 301.641 337.17 301.329 337.326H297.958C296.971 340.145 298.614 345.064 299.722 347.56C299.789 347.706 299.857 347.854 299.925 348.003C299.86 347.866 299.792 347.718 299.722 347.56Z" fill="#D7CAB8"/>
</g>
<path fill-rule="evenodd" clip-rule="evenodd" d="M163.524 93.0548H163.43H152.207V90.5296C154.003 90.5296 154.826 88.9708 155.013 88.1914V85.3857H157.445C159.839 81.9439 160.063 76.6565 159.876 74.4431H156.883C155.686 74.4431 155.512 73.5702 155.574 73.1337C155.574 71.9366 156.447 71.6373 156.883 71.6373H161.747C156.883 69.0186 156.852 66.5557 157.445 65.6516C160.657 62.9432 162.46 59.4262 163.21 57.3213C162.598 57.2579 162.121 56.7406 162.121 56.112C162.121 55.4405 162.665 54.8961 163.337 54.8961C164.008 54.8961 164.553 55.4405 164.553 56.112C164.553 56.648 164.206 57.1031 163.724 57.2648C164.462 59.3629 166.268 62.9189 169.509 65.6516C170.102 66.5557 170.071 69.0186 165.207 71.6373H170.071C170.507 71.6373 171.38 71.9366 171.38 73.1337C171.442 73.5702 171.268 74.4431 170.071 74.4431H167.078C166.891 76.6565 167.115 81.9439 169.509 85.3857H171.941V88.1914C172.128 88.9708 172.951 90.5296 174.747 90.5296V93.0548H163.524Z" fill="#646367"/>
<path d="M152.207 93.0548H151.707V93.5548H152.207V93.0548ZM152.207 90.5296V90.0296H151.707V90.5296H152.207ZM155.013 88.1914L155.499 88.3081L155.513 88.2506V88.1914H155.013ZM155.013 85.3857V84.8857H154.513V85.3857H155.013ZM157.445 85.3857V85.8857H157.706L157.855 85.6712L157.445 85.3857ZM159.876 74.4431L160.375 74.401L160.336 73.9431H159.876V74.4431ZM155.574 73.1337L156.069 73.2044L156.074 73.1693V73.1337H155.574ZM161.747 71.6373V72.1373L161.984 71.1971L161.747 71.6373ZM157.445 65.6516L157.122 65.2694L157.066 65.3165L157.026 65.3776L157.445 65.6516ZM163.21 57.3213L163.681 57.4891L163.895 56.8895L163.262 56.8239L163.21 57.3213ZM163.724 57.2648L163.565 56.7908L163.084 56.9523L163.252 57.4307L163.724 57.2648ZM169.509 65.6516L169.928 65.3776L169.888 65.3165L169.832 65.2694L169.509 65.6516ZM165.207 71.6373L164.97 71.1971L165.207 72.1373V71.6373ZM171.38 73.1337H170.88V73.1693L170.885 73.2044L171.38 73.1337ZM167.078 74.4431V73.9431H166.618L166.58 74.401L167.078 74.4431ZM169.509 85.3857L169.099 85.6712L169.248 85.8857H169.509V85.3857ZM171.941 85.3857H172.441V84.8857H171.941V85.3857ZM171.941 88.1914H171.441V88.2506L171.455 88.3081L171.941 88.1914ZM174.747 90.5296H175.247V90.0296H174.747V90.5296ZM174.747 93.0548V93.5548H175.247V93.0548H174.747ZM163.43 93.5548H163.524V92.5548H163.43V93.5548ZM152.207 93.5548H163.43V92.5548H152.207V93.5548ZM151.707 90.5296V93.0548H152.707V90.5296H151.707ZM154.527 88.0748C154.45 88.3929 154.234 88.8966 153.847 89.312C153.471 89.7162 152.943 90.0296 152.207 90.0296V91.0296C153.267 91.0296 154.048 90.5636 154.579 89.9935C155.1 89.4347 155.388 88.7694 155.499 88.3081L154.527 88.0748ZM154.513 85.3857V88.1914H155.513V85.3857H154.513ZM157.445 84.8857H155.013V85.8857H157.445V84.8857ZM159.378 74.4852C159.468 75.552 159.46 77.3859 159.135 79.373C158.809 81.3643 158.172 83.4647 157.034 85.1001L157.855 85.6712C159.112 83.8648 159.784 81.6006 160.122 79.5345C160.461 77.4641 160.471 75.5476 160.375 74.401L159.378 74.4852ZM156.883 74.9431H159.876V73.9431H156.883V74.9431ZM155.079 73.063C155.035 73.3701 155.07 73.8318 155.343 74.2332C155.637 74.6653 156.148 74.9431 156.883 74.9431V73.9431C156.421 73.9431 156.247 73.7844 156.17 73.6709C156.072 73.5267 156.051 73.3338 156.069 73.2044L155.079 73.063ZM156.883 71.1373C156.57 71.1373 156.125 71.24 155.747 71.5505C155.35 71.8778 155.074 72.3985 155.074 73.1337H156.074C156.074 72.6718 156.235 72.4443 156.383 72.3227C156.551 72.1842 156.76 72.1373 156.883 72.1373V71.1373ZM161.747 71.1373H156.883V72.1373H161.747V71.1373ZM157.026 65.3776C156.615 66.0062 156.497 67.0435 157.105 68.2297C157.71 69.4094 159.029 70.7418 161.51 72.0775L161.984 71.1971C159.601 69.914 158.473 68.7057 157.995 67.7733C157.52 66.8473 157.682 66.2011 157.863 65.9256L157.026 65.3776ZM162.739 57.1534C162.009 59.2014 160.248 62.6337 157.122 65.2694L157.767 66.0339C161.065 63.2528 162.91 59.6511 163.681 57.4891L162.739 57.1534ZM161.621 56.112C161.621 56.9995 162.294 57.7291 163.158 57.8186L163.262 56.8239C162.902 56.7867 162.621 56.4818 162.621 56.112H161.621ZM163.337 54.3961C162.389 54.3961 161.621 55.1643 161.621 56.112H162.621C162.621 55.7166 162.941 55.3961 163.337 55.3961V54.3961ZM165.053 56.112C165.053 55.1643 164.284 54.3961 163.337 54.3961V55.3961C163.732 55.3961 164.053 55.7166 164.053 56.112H165.053ZM163.883 57.7388C164.562 57.5107 165.053 56.8692 165.053 56.112H164.053C164.053 56.4268 163.849 56.6954 163.565 56.7908L163.883 57.7388ZM169.832 65.2694C166.677 62.6099 164.914 59.1393 164.196 57.0989L163.252 57.4307C164.011 59.5864 165.859 63.2279 169.187 66.0339L169.832 65.2694ZM165.444 72.0775C167.925 70.7418 169.244 69.4094 169.849 68.2297C170.458 67.0435 170.34 66.0062 169.928 65.3776L169.091 65.9256C169.272 66.2011 169.434 66.8473 168.959 67.7733C168.481 68.7057 167.353 69.914 164.97 71.1971L165.444 72.0775ZM170.071 71.1373H165.207V72.1373H170.071V71.1373ZM171.88 73.1337C171.88 72.3985 171.604 71.8778 171.207 71.5505C170.829 71.24 170.384 71.1373 170.071 71.1373V72.1373C170.194 72.1373 170.403 72.1842 170.571 72.3227C170.719 72.4443 170.88 72.6718 170.88 73.1337H171.88ZM170.071 74.9431C170.806 74.9431 171.317 74.6653 171.611 74.2332C171.884 73.8318 171.919 73.3701 171.875 73.063L170.885 73.2044C170.904 73.3338 170.882 73.5267 170.784 73.6709C170.707 73.7844 170.533 73.9431 170.071 73.9431V74.9431ZM167.078 74.9431H170.071V73.9431H167.078V74.9431ZM169.92 85.1001C168.782 83.4647 168.145 81.3643 167.819 79.373C167.494 77.3859 167.486 75.552 167.576 74.4852L166.58 74.401C166.483 75.5476 166.493 77.4641 166.832 79.5345C167.17 81.6006 167.842 83.8648 169.099 85.6712L169.92 85.1001ZM171.941 84.8857H169.509V85.8857H171.941V84.8857ZM172.441 88.1914V85.3857H171.441V88.1914H172.441ZM174.747 90.0296C174.011 90.0296 173.483 89.7162 173.107 89.312C172.72 88.8966 172.504 88.3929 172.427 88.0748L171.455 88.3081C171.566 88.7694 171.855 89.4347 172.375 89.9935C172.906 90.5636 173.687 91.0296 174.747 91.0296V90.0296ZM175.247 93.0548V90.5296H174.247V93.0548H175.247ZM163.524 93.5548H174.747V92.5548H163.524V93.5548Z" fill="black"/>
<rect x="155.139" y="85.6986" width="16.5829" height="2.17989" fill="#646367" stroke="black"/>
<g filter="url(#filter11_df_58_219)">
<ellipse cx="161.279" cy="64.0617" rx="0.654683" ry="1.12231" transform="rotate(40.6684 161.279 64.0617)" fill="#8E8B96"/>
</g>
<g filter="url(#filter12_df_58_219)">
<path d="M159.689 69.4862C165.899 68.4387 166.579 64.4358 166.143 62.5652L169.603 65.7451C169.902 66.8675 169.478 67.6468 169.229 67.8962C166.61 70.5898 164.147 71.3879 163.243 71.4502H161.84C160.718 71.151 159.502 70.0162 159.035 69.4862H159.689Z" fill="#4B4A4D"/>
</g>
<g filter="url(#filter13_f_58_219)">
<path d="M168.746 84.7571C163.866 74.1395 161.364 71.9524 160.718 72.1985L159.222 71.7308H159.876H160.531H161.466H165.394H169.697C170.969 71.7308 171.287 72.6661 171.287 73.1337C171.287 73.8819 170.663 74.3807 170.351 74.5366H166.984C165.999 77.352 167.64 82.264 168.746 84.7571C168.813 84.9027 168.881 85.0499 168.948 85.1986C168.884 85.0618 168.816 84.9143 168.746 84.7571Z" fill="#4B4A4D"/>
</g>
<path fill-rule="evenodd" clip-rule="evenodd" d="M205.409 10.389H207.744L207.744 10.389H207.938L207.554 12.5015L209.494 12.237V12.2509L209.592 12.237V14.5713L209.494 14.5574V14.5712L207.556 14.3069L208.133 16.6135L208.133 16.6137H208.133L208.133 16.6138H205.215L205.215 16.6137L205.792 14.307L203.853 14.5713V14.5574L203.756 14.5712V12.237L203.853 12.2508V12.237L205.794 12.5016L205.409 10.389ZM206.674 19.3371H215.136L211.926 26.0482V28.3825C212.866 28.5446 214.747 29.2384 214.747 30.7167C214.747 32.1951 212.412 32.435 211.245 32.3702C210.824 33.7319 210.623 37.7974 213.19 43.1663H215.33V45.5978C216.303 46.1814 218.268 47.6792 218.345 49.002V50.85H206.674V19.3371ZM206.674 19.3371H198.212L201.422 26.0482V28.3825C200.482 28.5446 198.601 29.2384 198.601 30.7168C198.601 32.1952 200.935 32.4351 202.103 32.3703C202.524 33.7319 202.725 37.7975 200.157 43.1663H198.018V45.5979C197.045 46.1815 195.08 47.6793 195.002 49.0021V50.85H206.674V19.3371Z" fill="#646367"/>
<path d="M207.744 10.389L208.235 10.4807L208.346 9.88898H207.744V10.389ZM205.409 10.389V9.88898H204.81L204.918 10.4784L205.409 10.389ZM207.744 10.389L207.252 10.2973L207.142 10.889H207.744V10.389ZM207.938 10.389L208.43 10.4785L208.537 9.88903H207.938V10.389ZM207.554 12.5015L207.062 12.4121L206.939 13.0901L207.622 12.997L207.554 12.5015ZM209.494 12.237H209.994V11.6641L209.427 11.7415L209.494 12.237ZM209.494 12.2509H208.994V12.8274L209.565 12.7459L209.494 12.2509ZM209.592 12.237H210.092V11.6605L209.521 11.742L209.592 12.237ZM209.592 14.5713L209.521 15.0663L210.092 15.1478V14.5713H209.592ZM209.494 14.5574L209.565 14.0624L208.994 13.9809V14.5574H209.494ZM209.494 14.5712L209.427 15.0667L209.994 15.1441V14.5712H209.494ZM207.556 14.3069L207.624 13.8115L206.892 13.7117L207.071 14.4282L207.556 14.3069ZM208.133 16.6135L207.648 16.7348L207.652 16.7534L207.658 16.7716L208.133 16.6135ZM208.133 16.6137V17.1137H208.827L208.607 16.4556L208.133 16.6137ZM208.133 16.6137V16.1137H207.49L207.648 16.7369L208.133 16.6137ZM208.133 16.6138V17.1138H208.776L208.617 16.4906L208.133 16.6138ZM205.215 16.6138L204.718 16.5549L204.652 17.1138H205.215V16.6138ZM205.215 16.6137L204.73 16.4925L204.722 16.5233L204.718 16.5548L205.215 16.6137ZM205.792 14.307L206.277 14.4282L206.456 13.7118L205.724 13.8116L205.792 14.307ZM203.853 14.5713H203.353V15.1441L203.921 15.0667L203.853 14.5713ZM203.853 14.5574H204.353V13.9808L203.783 14.0624L203.853 14.5574ZM203.756 14.5712H203.256V15.1477L203.827 15.0662L203.756 14.5712ZM203.756 12.237L203.827 11.742L203.256 11.6605V12.237H203.756ZM203.853 12.2508L203.783 12.7458L204.353 12.8274V12.2508H203.853ZM203.853 12.237L203.921 11.7416L203.353 11.6642V12.237H203.853ZM205.794 12.5016L205.726 12.997L206.409 13.0901L206.286 12.4122L205.794 12.5016ZM215.136 19.3371L215.587 19.5528L215.929 18.8371H215.136V19.3371ZM206.674 19.3371V18.8371H206.174V19.3371H206.674ZM211.926 26.0482L211.475 25.8324L211.426 25.9348V26.0482H211.926ZM211.926 28.3825H211.426V28.8036L211.841 28.8752L211.926 28.3825ZM211.245 32.3702L211.273 31.871L210.883 31.8493L210.768 32.2224L211.245 32.3702ZM213.19 43.1663L212.739 43.382L212.875 43.6663H213.19V43.1663ZM215.33 43.1663H215.83V42.6663H215.33V43.1663ZM215.33 45.5978H214.83V45.8809L215.073 46.0266L215.33 45.5978ZM218.345 49.002H218.845V48.9873L218.844 48.9726L218.345 49.002ZM218.345 50.85V51.35H218.845V50.85H218.345ZM206.674 50.85H206.174V51.35H206.674V50.85ZM198.212 19.3371V18.8371H197.419L197.761 19.5529L198.212 19.3371ZM206.674 19.3371H207.174V18.8371H206.674V19.3371ZM201.422 26.0482H201.922V25.9348L201.873 25.8325L201.422 26.0482ZM201.422 28.3825L201.507 28.8752L201.922 28.8037V28.3825H201.422ZM202.103 32.3703L202.58 32.2224L202.465 31.8494L202.075 31.871L202.103 32.3703ZM200.157 43.1663V43.6663H200.472L200.608 43.3821L200.157 43.1663ZM198.018 43.1663V42.6663H197.518V43.1663H198.018ZM198.018 45.5979L198.275 46.0266L198.518 45.881V45.5979H198.018ZM195.002 49.0021L194.503 48.9727L194.502 48.9874V49.0021H195.002ZM195.002 50.85H194.502V51.35H195.002V50.85ZM206.674 50.85V51.35H207.174V50.85H206.674ZM207.744 9.88898H205.409V10.889H207.744V9.88898ZM208.235 10.4808L208.235 10.4807L207.252 10.2972L207.252 10.2973L208.235 10.4808ZM207.744 10.889H207.938V9.88903H207.744V10.889ZM207.446 10.2996L207.062 12.4121L208.046 12.591L208.43 10.4785L207.446 10.2996ZM209.427 11.7415L207.487 12.0061L207.622 12.997L209.562 12.7324L209.427 11.7415ZM209.994 12.2509V12.237H208.994V12.2509H209.994ZM209.565 12.7459L209.662 12.732L209.521 11.742L209.424 11.7559L209.565 12.7459ZM209.092 12.237V14.5713H210.092V12.237H209.092ZM209.662 14.0763L209.565 14.0624L209.424 15.0524L209.521 15.0663L209.662 14.0763ZM209.994 14.5712V14.5574H208.994V14.5712H209.994ZM207.489 14.8023L209.427 15.0667L209.562 14.0758L207.624 13.8115L207.489 14.8023ZM207.071 14.4282L207.648 16.7348L208.618 16.4922L208.041 14.1857L207.071 14.4282ZM208.607 16.4556L208.607 16.4554L207.658 16.7716L207.658 16.7719L208.607 16.4556ZM208.133 17.1137H208.133V16.1137H208.133V17.1137ZM207.648 16.7369L207.648 16.737L208.617 16.4906L208.617 16.4905L207.648 16.7369ZM208.133 16.1138H205.215V17.1138H208.133V16.1138ZM205.711 16.6727L205.711 16.6727L204.718 16.5548L204.718 16.5549L205.711 16.6727ZM205.307 14.1857L204.73 16.4925L205.7 16.735L206.277 14.4282L205.307 14.1857ZM205.724 13.8116L203.786 14.0759L203.921 15.0667L205.859 14.8024L205.724 13.8116ZM204.353 14.5713V14.5574H203.353V14.5713H204.353ZM203.827 15.0662L203.924 15.0523L203.783 14.0624L203.685 14.0763L203.827 15.0662ZM203.256 12.237V14.5712H204.256V12.237H203.256ZM203.924 11.7559L203.827 11.742L203.685 12.7319L203.783 12.7458L203.924 11.7559ZM204.353 12.2508V12.237H203.353V12.2508H204.353ZM203.786 12.7324L205.726 12.997L205.861 12.0062L203.921 11.7416L203.786 12.7324ZM204.918 10.4784L205.302 12.591L206.286 12.4122L205.901 10.2995L204.918 10.4784ZM215.136 18.8371H206.674V19.8371H215.136V18.8371ZM212.377 26.2639L215.587 19.5528L214.685 19.1214L211.475 25.8324L212.377 26.2639ZM212.426 28.3825V26.0482H211.426V28.3825H212.426ZM215.247 30.7167C215.247 29.7345 214.615 29.058 213.96 28.6357C213.302 28.2117 212.529 27.979 212.011 27.8897L211.841 28.8752C212.264 28.9481 212.901 29.1432 213.418 29.4763C213.938 29.811 214.247 30.2206 214.247 30.7167H215.247ZM211.217 32.8694C211.837 32.9039 212.78 32.86 213.588 32.5978C214.372 32.3434 215.247 31.7978 215.247 30.7167H214.247C214.247 31.1141 213.954 31.4277 213.279 31.6466C212.629 31.8577 211.82 31.9014 211.273 31.871L211.217 32.8694ZM213.642 42.9506C211.114 37.6653 211.347 33.7312 211.723 32.518L210.768 32.2224C210.3 33.7326 210.132 37.9295 212.739 43.382L213.642 42.9506ZM215.33 42.6663H213.19V43.6663H215.33V42.6663ZM215.83 45.5978V43.1663H214.83V45.5978H215.83ZM218.844 48.9726C218.818 48.528 218.637 48.1044 218.402 47.7286C218.164 47.3496 217.853 46.9899 217.524 46.6664C216.868 46.0203 216.1 45.4767 215.587 45.1691L215.073 46.0266C215.533 46.3025 216.234 46.7996 216.823 47.379C217.116 47.6683 217.371 47.9675 217.555 48.2597C217.74 48.555 217.833 48.8146 217.846 49.0314L218.844 48.9726ZM218.845 50.85V49.002H217.845V50.85H218.845ZM206.674 51.35H218.345V50.35H206.674V51.35ZM206.174 19.3371V50.85H207.174V19.3371H206.174ZM198.212 19.8371H206.674V18.8371H198.212V19.8371ZM201.873 25.8325L198.663 19.1214L197.761 19.5529L200.971 26.2639L201.873 25.8325ZM201.922 28.3825V26.0482H200.922V28.3825H201.922ZM199.101 30.7168C199.101 30.2207 199.41 29.8111 199.93 29.4764C200.447 29.1433 201.084 28.9481 201.507 28.8752L201.337 27.8898C200.819 27.979 200.046 28.2118 199.388 28.6357C198.732 29.0581 198.101 29.7346 198.101 30.7168H199.101ZM202.075 31.871C201.528 31.9014 200.719 31.8578 200.068 31.6466C199.394 31.4277 199.101 31.1141 199.101 30.7168H198.101C198.101 31.7979 198.976 32.3434 199.76 32.5978C200.568 32.86 201.51 32.9039 202.13 32.8695L202.075 31.871ZM200.608 43.3821C203.216 37.9296 203.048 33.7326 202.58 32.2224L201.625 32.5181C202 33.7312 202.234 37.6654 199.706 42.9506L200.608 43.3821ZM198.018 43.6663H200.157V42.6663H198.018V43.6663ZM198.518 45.5979V43.1663H197.518V45.5979H198.518ZM195.502 49.0314C195.514 48.8147 195.608 48.5551 195.793 48.2597C195.976 47.9676 196.231 47.6684 196.525 47.3791C197.114 46.7997 197.815 46.3026 198.275 46.0266L197.76 45.1691C197.248 45.4768 196.48 46.0204 195.824 46.6665C195.495 46.9899 195.183 47.3497 194.946 47.7286C194.71 48.1044 194.529 48.5281 194.503 48.9727L195.502 49.0314ZM195.502 50.85V49.0021H194.502V50.85H195.502ZM206.674 50.35H195.002V51.35H206.674V50.35ZM206.174 19.3371V50.85H207.174V19.3371H206.174Z" fill="black"/>
<rect x="201.922" y="26.6454" width="9.5043" height="1.33429" fill="#646367" stroke="black"/>
<path d="M202.103 32.2729H211.342" stroke="black"/>
<rect x="198.42" y="43.1799" width="16.5072" height="1.91786" fill="#646367" stroke="black"/>
<g filter="url(#filter14_f_58_219)">
<path d="M206.771 19.5316C209.261 19.5316 211.18 24.0056 211.829 26.2426L214.844 19.5316H206.771Z" fill="#4B4A4D"/>
</g>
<g filter="url(#filter15_f_58_219)">
<path d="M210.273 42.68C210.739 35.7549 207.614 33.1159 205.993 32.662L205.312 32.3702H211.148C210.214 35.3269 211.861 40.4753 212.801 42.68H210.273Z" fill="#4C4B4E"/>
</g>
<path fill-rule="evenodd" clip-rule="evenodd" d="M161.758 228.645H164.093L164.287 228.645L163.903 230.758L165.843 230.493V230.507L165.941 230.493V232.827L165.843 232.813V232.827L163.905 232.563L164.482 234.87H161.564L161.564 234.87L162.14 232.563L160.202 232.827V232.813L160.105 232.827V230.493L160.202 230.507V230.493L162.142 230.758L161.758 228.645ZM163.023 237.593H171.484L168.275 244.304V246.638C169.215 246.801 171.095 247.494 171.095 248.973C171.095 250.451 168.761 250.691 167.594 250.626C167.173 251.988 166.972 256.053 169.539 261.422H171.679V263.854C172.652 264.437 174.616 265.935 174.694 267.258V269.106L163.023 269.106L163.023 269.106L151.351 269.106V267.258C151.429 265.935 153.394 264.437 154.366 263.854V261.422H156.506C159.074 256.053 158.873 251.988 158.451 250.626C157.284 250.691 154.95 250.451 154.95 248.973C154.95 247.494 156.83 246.801 157.771 246.639V244.304L154.561 237.593L163.023 237.593Z" fill="#F7F1DF"/>
<path d="M164.093 228.645L164.093 228.145H164.093V228.645ZM161.758 228.645V228.145H161.159L161.266 228.734L161.758 228.645ZM164.287 228.645L164.779 228.734L164.886 228.145L164.287 228.145L164.287 228.645ZM163.903 230.758L163.411 230.668L163.288 231.346L163.971 231.253L163.903 230.758ZM165.843 230.493H166.343V229.92L165.776 229.998L165.843 230.493ZM165.843 230.507H165.343V231.083L165.914 231.002L165.843 230.507ZM165.941 230.493H166.441V229.916L165.87 229.998L165.941 230.493ZM165.941 232.827L165.87 233.322L166.441 233.404V232.827H165.941ZM165.843 232.813L165.914 232.318L165.343 232.237V232.813H165.843ZM165.843 232.827L165.776 233.323L166.343 233.4V232.827H165.843ZM163.905 232.563L163.973 232.068L163.241 231.968L163.42 232.684L163.905 232.563ZM164.482 234.87V235.37H165.122L164.967 234.749L164.482 234.87ZM161.564 234.87L161.538 235.369L161.551 235.37H161.564V234.87ZM161.564 234.87L161.079 234.749L160.931 235.337L161.538 235.369L161.564 234.87ZM162.14 232.563L162.626 232.684L162.805 231.968L162.073 232.068L162.14 232.563ZM160.202 232.827H159.702V233.4L160.27 233.323L160.202 232.827ZM160.202 232.813H160.702V232.237L160.131 232.318L160.202 232.813ZM160.105 232.827H159.605V233.404L160.176 233.322L160.105 232.827ZM160.105 230.493L160.176 229.998L159.605 229.916V230.493H160.105ZM160.202 230.507L160.131 231.002L160.702 231.083V230.507H160.202ZM160.202 230.493L160.27 229.998L159.702 229.92V230.493H160.202ZM162.142 230.758L162.075 231.253L162.758 231.346L162.634 230.668L162.142 230.758ZM171.484 237.593L171.936 237.809L172.278 237.093H171.484V237.593ZM163.023 237.593L163.023 237.093L163.023 237.093L163.023 237.593ZM168.275 244.304L167.824 244.088L167.775 244.191V244.304H168.275ZM168.275 246.638H167.775V247.06L168.19 247.131L168.275 246.638ZM167.594 250.626L167.622 250.127L167.232 250.105L167.116 250.478L167.594 250.626ZM169.539 261.422L169.088 261.638L169.224 261.922H169.539V261.422ZM171.679 261.422H172.179V260.922H171.679V261.422ZM171.679 263.854H171.179V264.137L171.422 264.283L171.679 263.854ZM174.694 267.258H175.194V267.243L175.193 267.229L174.694 267.258ZM174.694 269.106L174.694 269.606L175.194 269.606V269.106H174.694ZM163.023 269.106L163.004 269.606L163.013 269.606L163.023 269.606L163.023 269.106ZM163.023 269.106L163.042 268.606L163.032 268.606L163.023 268.606L163.023 269.106ZM151.351 269.106H150.851V269.606L151.351 269.606L151.351 269.106ZM151.351 267.258L150.852 267.229L150.851 267.243V267.258H151.351ZM154.366 263.854L154.624 264.283L154.866 264.137V263.854H154.366ZM154.366 261.422V260.922H153.866V261.422H154.366ZM156.506 261.422V261.922H156.821L156.957 261.638L156.506 261.422ZM158.451 250.626L158.929 250.478L158.814 250.105L158.424 250.127L158.451 250.626ZM157.771 246.639L157.856 247.131L158.271 247.06V246.639H157.771ZM157.771 244.304H158.271V244.191L158.222 244.088L157.771 244.304ZM154.561 237.593L154.561 237.093L153.768 237.093L154.11 237.809L154.561 237.593ZM164.093 228.145H161.758V229.145H164.093V228.145ZM164.093 229.145L164.287 229.145L164.287 228.145L164.093 228.145L164.093 229.145ZM163.795 228.556L163.411 230.668L164.395 230.847L164.779 228.734L163.795 228.556ZM165.776 229.998L163.836 230.262L163.971 231.253L165.911 230.988L165.776 229.998ZM166.343 230.507V230.493H165.343V230.507H166.343ZM165.914 231.002L166.011 230.988L165.87 229.998L165.773 230.012L165.914 231.002ZM165.441 230.493V232.827H166.441V230.493H165.441ZM166.011 232.332L165.914 232.318L165.773 233.308L165.87 233.322L166.011 232.332ZM166.343 232.827V232.813H165.343V232.827H166.343ZM163.837 233.058L165.776 233.323L165.911 232.332L163.973 232.068L163.837 233.058ZM163.42 232.684L163.997 234.991L164.967 234.749L164.39 232.442L163.42 232.684ZM164.482 234.37H161.564V235.37H164.482V234.37ZM161.538 235.369L161.538 235.369L161.59 234.37L161.59 234.37L161.538 235.369ZM161.655 232.442L161.079 234.749L162.049 234.991L162.626 232.684L161.655 232.442ZM162.073 232.068L160.135 232.332L160.27 233.323L162.208 233.058L162.073 232.068ZM160.702 232.827V232.813H159.702V232.827H160.702ZM160.176 233.322L160.273 233.308L160.131 232.318L160.034 232.332L160.176 233.322ZM159.605 230.493V232.827H160.605V230.493H159.605ZM160.273 230.012L160.176 229.998L160.034 230.988L160.131 231.002L160.273 230.012ZM160.702 230.507V230.493H159.702V230.507H160.702ZM160.135 230.988L162.075 231.253L162.21 230.262L160.27 229.998L160.135 230.988ZM161.266 228.734L161.65 230.847L162.634 230.668L162.25 228.556L161.266 228.734ZM171.484 237.093H163.023V238.093H171.484V237.093ZM168.726 244.52L171.936 237.809L171.033 237.377L167.824 244.088L168.726 244.52ZM168.775 246.638V244.304H167.775V246.638H168.775ZM171.595 248.973C171.595 247.991 170.964 247.314 170.308 246.892C169.65 246.468 168.877 246.235 168.36 246.146L168.19 247.131C168.613 247.204 169.25 247.399 169.767 247.732C170.286 248.067 170.595 248.477 170.595 248.973H171.595ZM167.566 251.125C168.186 251.16 169.128 251.116 169.937 250.854C170.721 250.599 171.595 250.054 171.595 248.973H170.595C170.595 249.37 170.303 249.684 169.628 249.903C168.977 250.114 168.169 250.157 167.622 250.127L167.566 251.125ZM169.99 261.207C167.463 255.921 167.696 251.987 168.072 250.774L167.116 250.478C166.649 251.989 166.48 256.186 169.088 261.638L169.99 261.207ZM171.679 260.922H169.539V261.922H171.679V260.922ZM172.179 263.854V261.422H171.179V263.854H172.179ZM175.193 267.229C175.167 266.784 174.986 266.36 174.751 265.985C174.513 265.606 174.201 265.246 173.873 264.922C173.217 264.276 172.449 263.733 171.936 263.425L171.422 264.283C171.882 264.559 172.583 265.056 173.171 265.635C173.465 265.924 173.72 266.224 173.903 266.516C174.088 266.811 174.182 267.071 174.195 267.287L175.193 267.229ZM175.194 269.106V267.258H174.194V269.106H175.194ZM163.023 269.606L174.694 269.606L174.694 268.606L163.023 268.606L163.023 269.606ZM163.042 268.606L163.042 268.606L163.004 269.606L163.004 269.606L163.042 268.606ZM163.023 268.606L151.351 268.606L151.351 269.606L163.023 269.606L163.023 268.606ZM151.851 269.106V267.258H150.851V269.106H151.851ZM151.85 267.287C151.863 267.071 151.957 266.811 152.142 266.516C152.325 266.224 152.58 265.924 152.874 265.635C153.463 265.056 154.164 264.559 154.624 264.283L154.109 263.425C153.597 263.733 152.829 264.276 152.173 264.922C151.844 265.246 151.532 265.606 151.295 265.985C151.059 266.36 150.878 266.784 150.852 267.229L151.85 267.287ZM154.866 263.854V261.422H153.866V263.854H154.866ZM154.366 261.922H156.506V260.922H154.366V261.922ZM156.957 261.638C159.565 256.186 159.397 251.989 158.929 250.478L157.974 250.774C158.349 251.987 158.583 255.921 156.055 261.207L156.957 261.638ZM158.424 250.127C157.877 250.157 157.068 250.114 156.417 249.903C155.743 249.684 155.45 249.37 155.45 248.973H154.45C154.45 250.054 155.325 250.599 156.109 250.854C156.917 251.116 157.859 251.16 158.479 251.125L158.424 250.127ZM155.45 248.973C155.45 248.477 155.759 248.067 156.278 247.732C156.796 247.399 157.433 247.204 157.856 247.131L157.686 246.146C157.168 246.235 156.395 246.468 155.737 246.892C155.081 247.314 154.45 247.991 154.45 248.973H155.45ZM158.271 246.639V244.304H157.271V246.639H158.271ZM158.222 244.088L155.012 237.377L154.11 237.809L157.32 244.52L158.222 244.088ZM154.561 238.093L163.023 238.093L163.023 237.093L154.561 237.093L154.561 238.093Z" fill="black"/>
<rect x="158.271" y="244.901" width="9.5043" height="1.33429" fill="#F7F1DF" stroke="black"/>
<path d="M158.451 250.529H167.691" stroke="black"/>
<rect x="154.769" y="261.436" width="16.5072" height="1.91786" fill="#F7F1DF" stroke="black"/>
<g filter="url(#filter16_f_58_219)">
<path d="M163.12 237.788C165.61 237.788 167.529 242.262 168.178 244.499L171.193 237.788H163.12Z" fill="#D6C9B7"/>
</g>
<g filter="url(#filter17_f_58_219)">
<path d="M166.621 260.936C167.088 254.011 163.963 251.372 162.342 250.918L161.661 250.626H167.497C166.563 253.583 168.21 258.731 169.15 260.936H166.621Z" fill="#D6C9B7"/>
</g>
<path fill-rule="evenodd" clip-rule="evenodd" d="M206.222 319.433L202.857 326.8L198.403 321.653L200.283 330.759V332.937C199.656 332.97 198.403 333.392 198.403 334.817C198.37 335.213 198.937 336.005 201.471 336.005C201.636 339.007 201.451 345.566 199.392 347.784H197.611V350.753C196.456 350.819 194.147 351.98 194.147 356.098H206.222H206.519H218.594C218.594 351.98 216.285 350.819 215.13 350.753V347.784H213.348C211.29 345.566 211.105 339.007 211.27 336.005C213.804 336.005 214.371 335.213 214.338 334.817C214.338 333.392 213.084 332.97 212.458 332.937V330.759L214.338 321.653L209.884 326.8L206.519 319.433V318.783L206.37 319.108L206.222 318.783V319.433Z" fill="#F7F1DF"/>
<path d="M202.857 326.8L202.479 327.127L202.988 327.716L203.312 327.008L202.857 326.8ZM206.222 319.433L206.677 319.641L206.722 319.542V319.433H206.222ZM198.403 321.653L198.781 321.326L197.525 319.875L197.913 321.754L198.403 321.653ZM200.283 330.759H200.783V330.708L200.773 330.658L200.283 330.759ZM200.283 332.937L200.31 333.436L200.783 333.411V332.937H200.283ZM198.403 334.817L198.901 334.859L198.903 334.838V334.817H198.403ZM201.471 336.005L201.97 335.978L201.944 335.505H201.471V336.005ZM199.392 347.784V348.284H199.611L199.759 348.124L199.392 347.784ZM197.611 347.784V347.284H197.111V347.784H197.611ZM197.611 350.753L197.639 351.252L198.111 351.225V350.753H197.611ZM194.147 356.098H193.647V356.598H194.147V356.098ZM218.594 356.098V356.598H219.094V356.098H218.594ZM215.13 350.753H214.63V351.225L215.101 351.252L215.13 350.753ZM215.13 347.784H215.63V347.284H215.13V347.784ZM213.348 347.784L212.982 348.124L213.13 348.284H213.348V347.784ZM211.27 336.005V335.505H210.797L210.771 335.978L211.27 336.005ZM214.338 334.817H213.838V334.838L213.84 334.859L214.338 334.817ZM212.458 332.937H211.958V333.411L212.431 333.436L212.458 332.937ZM212.458 330.759L211.968 330.658L211.958 330.708V330.759H212.458ZM214.338 321.653L214.828 321.754L215.216 319.875L213.96 321.326L214.338 321.653ZM209.884 326.8L209.429 327.008L209.753 327.716L210.262 327.127L209.884 326.8ZM206.519 319.433H206.019V319.542L206.064 319.641L206.519 319.433ZM206.519 318.783H207.019L206.064 318.575L206.519 318.783ZM206.37 319.108L205.916 319.316L206.37 320.311L206.825 319.316L206.37 319.108ZM206.222 318.783L206.677 318.575L205.722 318.783H206.222ZM197.908 321.653L198.289 321.33L197.421 321.769L197.908 321.653ZM214.833 321.653L215.319 321.769L214.451 321.33L214.833 321.653ZM203.312 327.008L206.677 319.641L205.767 319.225L202.402 326.592L203.312 327.008ZM198.025 321.98L202.479 327.127L203.235 326.473L198.781 321.326L198.025 321.98ZM200.773 330.658L198.892 321.552L197.913 321.754L199.794 330.86L200.773 330.658ZM200.783 332.937V330.759H199.783V332.937H200.783ZM198.903 334.817C198.903 334.277 199.129 333.96 199.404 333.758C199.701 333.54 200.071 333.449 200.31 333.436L200.257 332.437C199.868 332.458 199.298 332.595 198.812 332.952C198.303 333.326 197.903 333.932 197.903 334.817H198.903ZM201.471 335.505C200.246 335.505 199.565 335.312 199.213 335.121C198.856 334.926 198.907 334.785 198.901 334.859L197.904 334.776C197.865 335.245 198.183 335.698 198.735 335.999C199.293 336.302 200.163 336.505 201.471 336.505V335.505ZM199.759 348.124C200.347 347.49 200.773 346.583 201.086 345.579C201.402 344.567 201.618 343.414 201.762 342.25C202.049 339.922 202.054 337.502 201.97 335.978L200.972 336.033C201.053 337.511 201.048 339.871 200.769 342.128C200.63 343.256 200.424 344.346 200.132 345.281C199.837 346.224 199.467 346.968 199.026 347.443L199.759 348.124ZM197.611 348.284H199.392V347.284H197.611V348.284ZM198.111 350.753V347.784H197.111V350.753H198.111ZM194.647 356.098C194.647 354.135 195.195 352.942 195.82 352.238C196.452 351.525 197.193 351.278 197.639 351.252L197.582 350.254C196.874 350.294 195.883 350.66 195.072 351.574C194.253 352.497 193.647 353.943 193.647 356.098H194.647ZM206.222 355.598H194.147V356.598H206.222V355.598ZM206.222 356.598H206.519V355.598H206.222V356.598ZM206.519 356.598H218.594V355.598H206.519V356.598ZM219.094 356.098C219.094 353.943 218.488 352.497 217.669 351.574C216.858 350.66 215.867 350.294 215.159 350.254L215.101 351.252C215.548 351.278 216.289 351.525 216.921 352.238C217.546 352.942 218.094 354.135 218.094 356.098H219.094ZM215.63 350.753V347.784H214.63V350.753H215.63ZM215.13 347.284H213.348V348.284H215.13V347.284ZM213.715 347.443C213.274 346.968 212.904 346.224 212.609 345.281C212.317 344.346 212.111 343.256 211.971 342.128C211.693 339.871 211.688 337.511 211.769 336.033L210.771 335.978C210.687 337.502 210.692 339.922 210.979 342.25C211.123 343.414 211.338 344.567 211.655 345.579C211.968 346.583 212.394 347.49 212.982 348.124L213.715 347.443ZM211.27 336.505C212.578 336.505 213.448 336.302 214.006 335.999C214.558 335.698 214.876 335.245 214.836 334.776L213.84 334.859C213.834 334.785 213.884 334.926 213.527 335.121C213.176 335.312 212.495 335.505 211.27 335.505V336.505ZM214.838 334.817C214.838 333.932 214.438 333.326 213.929 332.952C213.442 332.595 212.872 332.458 212.484 332.437L212.431 333.436C212.67 333.449 213.04 333.54 213.337 333.758C213.612 333.96 213.838 334.277 213.838 334.817H214.838ZM212.958 332.937V330.759H211.958V332.937H212.958ZM212.947 330.86L214.828 321.754L213.849 321.552L211.968 330.658L212.947 330.86ZM213.96 321.326L209.506 326.473L210.262 327.127L214.716 321.98L213.96 321.326ZM210.339 326.592L206.974 319.225L206.064 319.641L209.429 327.008L210.339 326.592ZM206.019 318.783V319.433H207.019V318.783H206.019ZM206.825 319.316L206.974 318.991L206.064 318.575L205.916 318.9L206.825 319.316ZM206.825 318.9L206.677 318.575L205.767 318.991L205.916 319.316L206.825 318.9ZM205.722 318.783V319.433H206.722V318.783H205.722ZM200.572 330.643L198.394 321.537L197.421 321.769L199.599 330.876L200.572 330.643ZM197.526 321.976L198.181 322.75L198.944 322.104L198.289 321.33L197.526 321.976ZM202.927 326.585L206.67 319.004L205.774 318.561L202.03 326.142L202.927 326.585ZM213.142 330.876L215.319 321.769L214.347 321.537L212.169 330.643L213.142 330.876ZM214.451 321.33L213.797 322.104L214.56 322.75L215.215 321.976L214.451 321.33ZM210.711 326.142L206.967 318.561L206.071 319.004L209.814 326.585L210.711 326.142Z" fill="black"/>
<path d="M201.372 336.104H211.468" stroke="black"/>
<circle cx="198.502" cy="322.148" r="1.47957" fill="#646367" stroke="black"/>
<circle cx="213.942" cy="322.148" r="1.47957" fill="#646367" stroke="black"/>
<circle cx="206.222" cy="318.783" r="1.47957" fill="#646367" stroke="black"/>
<rect x="200.783" y="331.16" width="11.0754" height="1.37548" fill="#646367" stroke="black"/>
<rect x="198.21" y="348.382" width="16.4202" height="1.96935" fill="#646367" stroke="black"/>
<g filter="url(#filter18_f_58_219)">
<path d="M200.382 330.561C205.846 330.482 207.74 325.645 208.004 323.237L208.103 323.039L209.884 326.899L212.755 323.633C212.992 324.029 213.513 324.128 213.744 324.128V324.326L212.26 330.561H200.382Z" fill="#D9CCBA"/>
</g>
<g filter="url(#filter19_f_58_219)">
<path d="M211.072 347.882C210.913 340.202 209.422 336.962 208.696 336.302H211.072C210.755 343.033 212.391 346.827 213.249 347.882H211.072Z" fill="#DACDBB"/>
</g>
<path fill-rule="evenodd" clip-rule="evenodd" d="M161.715 13.0186L158.35 20.3857L153.895 15.2388L155.776 24.3449V26.5224C155.149 26.5554 153.895 26.9777 153.895 28.403C153.862 28.7989 154.43 29.5907 156.964 29.5907C157.129 32.5931 156.944 39.152 154.885 41.3692H153.104V44.3385C151.949 44.4045 149.639 45.5658 149.639 49.6833H161.715H162.012H174.087C174.087 45.5658 171.778 44.4045 170.623 44.3385V41.3692H168.841C166.782 39.152 166.598 32.5931 166.763 29.5907C169.296 29.5907 169.864 28.7989 169.831 28.403C169.831 26.9777 168.577 26.5554 167.95 26.5224V24.3449L169.831 15.2388L165.377 20.3857L162.012 13.0186V12.3685L161.863 12.6935L161.715 12.3685V13.0186Z" fill="#646367"/>
<path d="M158.35 20.3857L157.971 20.7129L158.481 21.3016L158.804 20.5935L158.35 20.3857ZM161.715 13.0186L162.17 13.2263L162.215 13.1274V13.0186H161.715ZM153.895 15.2388L154.274 14.9117L153.018 13.4604L153.406 15.34L153.895 15.2388ZM155.776 24.3449H156.276V24.2938L156.266 24.2437L155.776 24.3449ZM155.776 26.5224L155.802 27.0217L156.276 26.9968V26.5224H155.776ZM153.895 28.403L154.394 28.4445L154.395 28.4238V28.403H153.895ZM156.964 29.5907L157.463 29.5633L157.437 29.0907H156.964V29.5907ZM154.885 41.3692V41.8692H155.103L155.252 41.7094L154.885 41.3692ZM153.104 41.3692V40.8692H152.604V41.3692H153.104ZM153.104 44.3385L153.132 44.8377L153.604 44.8108V44.3385H153.104ZM149.639 49.6833H149.139V50.1833H149.639V49.6833ZM174.087 49.6833V50.1833H174.587V49.6833H174.087ZM170.623 44.3385H170.123V44.8108L170.594 44.8377L170.623 44.3385ZM170.623 41.3692H171.123V40.8692H170.623V41.3692ZM168.841 41.3692L168.475 41.7094L168.623 41.8692H168.841V41.3692ZM166.763 29.5907V29.0907H166.289L166.263 29.5633L166.763 29.5907ZM169.831 28.403H169.331V28.4238L169.333 28.4445L169.831 28.403ZM167.95 26.5224H167.45V26.9968L167.924 27.0217L167.95 26.5224ZM167.95 24.3449L167.461 24.2437L167.45 24.2938V24.3449H167.95ZM169.831 15.2388L170.321 15.34L170.709 13.4604L169.453 14.9117L169.831 15.2388ZM165.377 20.3857L164.922 20.5935L165.246 21.3016L165.755 20.7129L165.377 20.3857ZM162.012 13.0186H161.512V13.1274L161.557 13.2263L162.012 13.0186ZM162.012 12.3685H162.512L161.557 12.1607L162.012 12.3685ZM161.863 12.6935L161.408 12.9013L161.863 13.8969L162.318 12.9013L161.863 12.6935ZM161.715 12.3685L162.17 12.1607L161.215 12.3685H161.715ZM153.401 15.2388L153.782 14.9159L152.914 15.3551L153.401 15.2388ZM170.326 15.2388L170.812 15.3551L169.944 14.9159L170.326 15.2388ZM158.804 20.5935L162.17 13.2263L161.26 12.8108L157.895 20.178L158.804 20.5935ZM153.517 15.566L157.971 20.7129L158.728 20.0585L154.274 14.9117L153.517 15.566ZM156.266 24.2437L154.385 15.1377L153.406 15.34L155.286 24.446L156.266 24.2437ZM156.276 26.5224V24.3449H155.276V26.5224H156.276ZM154.395 28.403C154.395 27.8629 154.622 27.5454 154.897 27.3435C155.194 27.1253 155.564 27.0342 155.802 27.0217L155.75 26.0231C155.361 26.0435 154.791 26.1801 154.305 26.5376C153.796 26.9115 153.395 27.5178 153.395 28.403H154.395ZM156.964 29.0907C155.738 29.0907 155.058 28.8975 154.706 28.7062C154.349 28.5118 154.4 28.3708 154.394 28.4445L153.397 28.3615C153.358 28.831 153.676 29.2839 154.228 29.5844C154.786 29.888 155.655 30.0907 156.964 30.0907V29.0907ZM155.252 41.7094C155.84 41.076 156.265 40.1686 156.579 39.1648C156.895 38.1529 157.111 36.9995 157.255 35.8356C157.542 33.5081 157.547 31.0874 157.463 29.5633L156.465 29.6182C156.546 31.0964 156.541 33.4563 156.262 35.7132C156.123 36.8414 155.917 37.9312 155.625 38.8665C155.33 39.8098 154.96 40.5538 154.519 41.0289L155.252 41.7094ZM153.104 41.8692H154.885V40.8692H153.104V41.8692ZM153.604 44.3385V41.3692H152.604V44.3385H153.604ZM150.139 49.6833C150.139 47.721 150.688 46.5276 151.312 45.8235C151.945 45.1109 152.686 44.8632 153.132 44.8377L153.075 43.8393C152.367 43.8798 151.376 44.2458 150.565 45.1597C149.746 46.0822 149.139 47.5282 149.139 49.6833H150.139ZM161.715 49.1833H149.639V50.1833H161.715V49.1833ZM161.715 50.1833H162.012V49.1833H161.715V50.1833ZM162.012 50.1833H174.087V49.1833H162.012V50.1833ZM174.587 49.6833C174.587 47.5282 173.981 46.0822 173.162 45.1597C172.351 44.2458 171.36 43.8798 170.651 43.8393L170.594 44.8377C171.04 44.8632 171.782 45.1109 172.414 45.8235C173.039 46.5276 173.587 47.721 173.587 49.6833H174.587ZM171.123 44.3385V41.3692H170.123V44.3385H171.123ZM170.623 40.8692H168.841V41.8692H170.623V40.8692ZM169.208 41.0289C168.766 40.5538 168.397 39.8098 168.102 38.8665C167.81 37.9312 167.604 36.8414 167.464 35.7132C167.186 33.4563 167.181 31.0964 167.262 29.6182L166.263 29.5633C166.18 31.0874 166.185 33.5081 166.472 35.8356C166.615 36.9995 166.831 38.1529 167.147 39.1648C167.461 40.1686 167.887 41.076 168.475 41.7094L169.208 41.0289ZM166.763 30.0907C168.071 30.0907 168.941 29.888 169.498 29.5844C170.05 29.2839 170.368 28.831 170.329 28.3615L169.333 28.4445C169.327 28.3708 169.377 28.5118 169.02 28.7062C168.669 28.8975 167.988 29.0907 166.763 29.0907V30.0907ZM170.331 28.403C170.331 27.5178 169.931 26.9115 169.422 26.5376C168.935 26.1801 168.365 26.0435 167.977 26.0231L167.924 27.0217C168.162 27.0342 168.533 27.1253 168.83 27.3435C169.104 27.5454 169.331 27.8629 169.331 28.403H170.331ZM168.45 26.5224V24.3449H167.45V26.5224H168.45ZM168.44 24.446L170.321 15.34L169.341 15.1377L167.461 24.2437L168.44 24.446ZM169.453 14.9117L164.999 20.0585L165.755 20.7129L170.209 15.566L169.453 14.9117ZM165.832 20.178L162.467 12.8108L161.557 13.2263L164.922 20.5935L165.832 20.178ZM161.512 12.3685V13.0186H162.512V12.3685H161.512ZM162.318 12.9013L162.467 12.5762L161.557 12.1607L161.408 12.4858L162.318 12.9013ZM162.318 12.4858L162.17 12.1607L161.26 12.5762L161.408 12.9013L162.318 12.4858ZM161.215 12.3685V13.0186H162.215V12.3685H161.215ZM156.064 24.2286L153.887 15.1226L152.914 15.3551L155.092 24.4611L156.064 24.2286ZM153.019 15.5618L153.674 16.3356L154.437 15.6896L153.782 14.9159L153.019 15.5618ZM158.42 20.1702L162.163 12.5899L161.266 12.1471L157.523 19.7274L158.42 20.1702ZM168.635 24.4611L170.812 15.3551L169.84 15.1226L167.662 24.2286L168.635 24.4611ZM169.944 14.9159L169.289 15.6896L170.053 16.3356L170.708 15.5618L169.944 14.9159ZM166.203 19.7274L162.46 12.1471L161.563 12.5899L165.307 20.1702L166.203 19.7274Z" fill="black"/>
<path d="M156.865 29.6897H166.961" stroke="black"/>
<circle cx="153.994" cy="15.7338" r="1.47957" fill="#F7F1DF" stroke="black"/>
<circle cx="169.435" cy="15.7338" r="1.47957" fill="#F7F1DF" stroke="black"/>
<circle cx="161.715" cy="12.3685" r="1.47957" fill="#F7F1DF" stroke="black"/>
<rect x="156.276" y="24.7459" width="11.0754" height="1.37548" fill="#F7F1DF" stroke="black"/>
<rect x="153.703" y="41.9681" width="16.4202" height="1.96935" fill="#F7F1DF" stroke="black"/>
<g filter="url(#filter20_f_58_219)">
<path d="M155.875 24.1469C161.339 24.0678 163.233 19.231 163.496 16.8225L163.595 16.6246L165.377 20.4847L168.247 17.2184C168.485 17.6144 169.006 17.7133 169.237 17.7133V17.9113L167.753 24.1469H155.875Z" fill="#4B4A4D"/>
</g>
<g filter="url(#filter21_f_58_219)">
<path d="M166.565 41.4682C166.406 33.7874 164.915 30.5476 164.189 29.8877H166.565C166.248 36.6182 167.884 40.4124 168.742 41.4682H166.565Z" fill="#4B4A4D"/>
</g>
<defs>
<filter id="filter0_df_58_219" x="240.969" y="186.256" width="14.9423" height="14.9423" filterUnits="userSpaceOnUse" color-interpolation-filters="sRGB">
<feFlood flood-opacity="0" result="BackgroundImageFix"/>
<feColorMatrix in="SourceAlpha" type="matrix" values="0 0 0 0 0 0 0 0 0 0 0 0 0 0 0 0 0 0 127 0" result="hardAlpha"/>
<feOffset dx="4" dy="4"/>
<feGaussianBlur stdDeviation="2"/>
<feComposite in2="hardAlpha" operator="out"/>
<feColorMatrix type="matrix" values="0 0 0 0 0.97876 0 0 0 0 0.922788 0 0 0 0 0.754875 0 0 0 1 0"/>
<feBlend mode="normal" in2="BackgroundImageFix" result="effect1_dropShadow_58_219"/>
<feBlend mode="normal" in="SourceGraphic" in2="effect1_dropShadow_58_219" result="shape"/>
<feGaussianBlur stdDeviation="2" result="effect2_foregroundBlur_58_219"/>
</filter>
<filter id="filter1_f_58_219" x="244.757" y="193.354" width="16.6113" height="24.7908" filterUnits="userSpaceOnUse" color-interpolation-filters="sRGB">
<feFlood flood-opacity="0" result="BackgroundImageFix"/>
<feBlend mode="normal" in="SourceGraphic" in2="BackgroundImageFix" result="shape"/>
<feGaussianBlur stdDeviation="0.75" result="effect1_foregroundBlur_58_219"/>
</filter>
<filter id="filter2_f_58_219" x="199.105" y="104.051" width="20.6113" height="28.7908" filterUnits="userSpaceOnUse" color-interpolation-filters="sRGB">
<feFlood flood-opacity="0" result="BackgroundImageFix"/>
<feBlend mode="normal" in="SourceGraphic" in2="BackgroundImageFix" result="shape"/>
<feGaussianBlur stdDeviation="1.75" result="effect1_foregroundBlur_58_219"/>
</filter>
<filter id="filter3_df_58_219" x="197.786" y="99.7507" width="10.2706" height="14.5549" filterUnits="userSpaceOnUse" color-interpolation-filters="sRGB">
<feFlood flood-opacity="0" result="BackgroundImageFix"/>
<feColorMatrix in="SourceAlpha" type="matrix" values="0 0 0 0 0 0 0 0 0 0 0 0 0 0 0 0 0 0 127 0" result="hardAlpha"/>
<feOffset dy="4"/>
<feGaussianBlur stdDeviation="2"/>
<feComposite in2="hardAlpha" operator="out"/>
<feColorMatrix type="matrix" values="0 0 0 0 0 0 0 0 0 0 0 0 0 0 0 0 0 0 0.25 0"/>
<feBlend mode="normal" in2="BackgroundImageFix" result="effect1_dropShadow_58_219"/>
<feBlend mode="normal" in="SourceGraphic" in2="effect1_dropShadow_58_219" result="shape"/>
<feGaussianBlur stdDeviation="2" result="effect2_foregroundBlur_58_219"/>
</filter>
<filter id="filter4_f_58_219" x="29.4528" y="272.523" width="10.5239" height="30.7194" filterUnits="userSpaceOnUse" color-interpolation-filters="sRGB">
<feFlood flood-opacity="0" result="BackgroundImageFix"/>
<feBlend mode="normal" in="SourceGraphic" in2="BackgroundImageFix" result="shape"/>
<feGaussianBlur stdDeviation="0.75" result="effect1_foregroundBlur_58_219"/>
</filter>
<filter id="filter5_f_58_219" x="337.162" y="55.2093" width="10.8132" height="31.7855" filterUnits="userSpaceOnUse" color-interpolation-filters="sRGB">
<feFlood flood-opacity="0" result="BackgroundImageFix"/>
<feBlend mode="normal" in="SourceGraphic" in2="BackgroundImageFix" result="shape"/>
<feGaussianBlur stdDeviation="0.75" result="effect1_foregroundBlur_58_219"/>
</filter>
<filter id="filter6_f_58_219" x="69.545" y="190.831" width="19.7969" height="32.0007" filterUnits="userSpaceOnUse" color-interpolation-filters="sRGB">
<feFlood flood-opacity="0" result="BackgroundImageFix"/>
<feBlend mode="normal" in="SourceGraphic" in2="BackgroundImageFix" result="shape"/>
<feGaussianBlur stdDeviation="1" result="effect1_foregroundBlur_58_219"/>
</filter>
<filter id="filter7_f_58_219" x="244.576" y="61.3084" width="19.2893" height="31.0734" filterUnits="userSpaceOnUse" color-interpolation-filters="sRGB">
<feFlood flood-opacity="0" result="BackgroundImageFix"/>
<feBlend mode="normal" in="SourceGraphic" in2="BackgroundImageFix" result="shape"/>
<feGaussianBlur stdDeviation="1" result="effect1_foregroundBlur_58_219"/>
</filter>
<filter id="filter8_df_58_219" x="111.043" y="103.627" width="13.7706" height="13.9074" filterUnits="userSpaceOnUse" color-interpolation-filters="sRGB">
<feFlood flood-opacity="0" result="BackgroundImageFix"/>
<feColorMatrix in="SourceAlpha" type="matrix" values="0 0 0 0 0 0 0 0 0 0 0 0 0 0 0 0 0 0 127 0" result="hardAlpha"/>
<feOffset dx="4" dy="4"/>
<feGaussianBlur stdDeviation="2"/>
<feComposite in2="hardAlpha" operator="out"/>
<feColorMatrix type="matrix" values="0 0 0 0 0.97876 0 0 0 0 0.922788 0 0 0 0 0.754875 0 0 0 1 0"/>
<feBlend mode="normal" in2="BackgroundImageFix" result="effect1_dropShadow_58_219"/>
<feBlend mode="normal" in="SourceGraphic" in2="effect1_dropShadow_58_219" result="shape"/>
<feGaussianBlur stdDeviation="2" result="effect2_foregroundBlur_58_219"/>
</filter>
<filter id="filter9_df_58_219" x="285.997" y="324.339" width="18.6858" height="17.897" filterUnits="userSpaceOnUse" color-interpolation-filters="sRGB">
<feFlood flood-opacity="0" result="BackgroundImageFix"/>
<feColorMatrix in="SourceAlpha" type="matrix" values="0 0 0 0 0 0 0 0 0 0 0 0 0 0 0 0 0 0 127 0" result="hardAlpha"/>
<feOffset dy="4"/>
<feGaussianBlur stdDeviation="2"/>
<feComposite in2="hardAlpha" operator="out"/>
<feColorMatrix type="matrix" values="0 0 0 0 1 0 0 0 0 0.995394 0 0 0 0 0.995394 0 0 0 0.25 0"/>
<feBlend mode="normal" in2="BackgroundImageFix" result="effect1_dropShadow_58_219"/>
<feBlend mode="normal" in="SourceGraphic" in2="effect1_dropShadow_58_219" result="shape"/>
<feGaussianBlur stdDeviation="0.5" result="effect2_foregroundBlur_58_219"/>
</filter>
<filter id="filter10_f_58_219" x="289.185" y="333.517" width="14.0812" height="15.486" filterUnits="userSpaceOnUse" color-interpolation-filters="sRGB">
<feFlood flood-opacity="0" result="BackgroundImageFix"/>
<feBlend mode="normal" in="SourceGraphic" in2="BackgroundImageFix" result="shape"/>
<feGaussianBlur stdDeviation="0.5" result="effect1_foregroundBlur_58_219"/>
</filter>
<filter id="filter11_df_58_219" x="156.395" y="59.1093" width="13.7682" height="13.9048" filterUnits="userSpaceOnUse" color-interpolation-filters="sRGB">
<feFlood flood-opacity="0" result="BackgroundImageFix"/>
<feColorMatrix in="SourceAlpha" type="matrix" values="0 0 0 0 0 0 0 0 0 0 0 0 0 0 0 0 0 0 127 0" result="hardAlpha"/>
<feOffset dx="4" dy="4"/>
<feGaussianBlur stdDeviation="2"/>
<feComposite in2="hardAlpha" operator="out"/>
<feColorMatrix type="matrix" values="0 0 0 0 0.298039 0 0 0 0 0.294118 0 0 0 0 0.305882 0 0 0 1 0"/>
<feBlend mode="normal" in2="BackgroundImageFix" result="effect1_dropShadow_58_219"/>
<feBlend mode="normal" in="SourceGraphic" in2="effect1_dropShadow_58_219" result="shape"/>
<feGaussianBlur stdDeviation="2" result="effect2_foregroundBlur_58_219"/>
</filter>
<filter id="filter12_df_58_219" x="155.035" y="60.5652" width="18.6714" height="18.885" filterUnits="userSpaceOnUse" color-interpolation-filters="sRGB">
<feFlood flood-opacity="0" result="BackgroundImageFix"/>
<feColorMatrix in="SourceAlpha" type="matrix" values="0 0 0 0 0 0 0 0 0 0 0 0 0 0 0 0 0 0 127 0" result="hardAlpha"/>
<feOffset dy="4"/>
<feGaussianBlur stdDeviation="2"/>
<feComposite in2="hardAlpha" operator="out"/>
<feColorMatrix type="matrix" values="0 0 0 0 0.389274 0 0 0 0 0.389274 0 0 0 0 0.389274 0 0 0 0.25 0"/>
<feBlend mode="normal" in2="BackgroundImageFix" result="effect1_dropShadow_58_219"/>
<feBlend mode="normal" in="SourceGraphic" in2="effect1_dropShadow_58_219" result="shape"/>
<feGaussianBlur stdDeviation="1" result="effect2_foregroundBlur_58_219"/>
</filter>
<filter id="filter13_f_58_219" x="157.222" y="69.7308" width="16.0649" height="17.4678" filterUnits="userSpaceOnUse" color-interpolation-filters="sRGB">
<feFlood flood-opacity="0" result="BackgroundImageFix"/>
<feBlend mode="normal" in="SourceGraphic" in2="BackgroundImageFix" result="shape"/>
<feGaussianBlur stdDeviation="1" result="effect1_foregroundBlur_58_219"/>
</filter>
<filter id="filter14_f_58_219" x="204.771" y="17.5316" width="12.0728" height="10.7111" filterUnits="userSpaceOnUse" color-interpolation-filters="sRGB">
<feFlood flood-opacity="0" result="BackgroundImageFix"/>
<feBlend mode="normal" in="SourceGraphic" in2="BackgroundImageFix" result="shape"/>
<feGaussianBlur stdDeviation="1" result="effect1_foregroundBlur_58_219"/>
</filter>
<filter id="filter15_f_58_219" x="203.312" y="30.3702" width="11.4891" height="14.3098" filterUnits="userSpaceOnUse" color-interpolation-filters="sRGB">
<feFlood flood-opacity="0" result="BackgroundImageFix"/>
<feBlend mode="normal" in="SourceGraphic" in2="BackgroundImageFix" result="shape"/>
<feGaussianBlur stdDeviation="1" result="effect1_foregroundBlur_58_219"/>
</filter>
<filter id="filter16_f_58_219" x="161.12" y="235.788" width="12.0728" height="10.7111" filterUnits="userSpaceOnUse" color-interpolation-filters="sRGB">
<feFlood flood-opacity="0" result="BackgroundImageFix"/>
<feBlend mode="normal" in="SourceGraphic" in2="BackgroundImageFix" result="shape"/>
<feGaussianBlur stdDeviation="1" result="effect1_foregroundBlur_58_219"/>
</filter>
<filter id="filter17_f_58_219" x="159.661" y="248.626" width="11.4891" height="14.3098" filterUnits="userSpaceOnUse" color-interpolation-filters="sRGB">
<feFlood flood-opacity="0" result="BackgroundImageFix"/>
<feBlend mode="normal" in="SourceGraphic" in2="BackgroundImageFix" result="shape"/>
<feGaussianBlur stdDeviation="1" result="effect1_foregroundBlur_58_219"/>
</filter>
<filter id="filter18_f_58_219" x="198.382" y="321.039" width="17.3621" height="11.5223" filterUnits="userSpaceOnUse" color-interpolation-filters="sRGB">
<feFlood flood-opacity="0" result="BackgroundImageFix"/>
<feBlend mode="normal" in="SourceGraphic" in2="BackgroundImageFix" result="shape"/>
<feGaussianBlur stdDeviation="1" result="effect1_foregroundBlur_58_219"/>
</filter>
<filter id="filter19_f_58_219" x="206.696" y="334.302" width="8.55298" height="15.5804" filterUnits="userSpaceOnUse" color-interpolation-filters="sRGB">
<feFlood flood-opacity="0" result="BackgroundImageFix"/>
<feBlend mode="normal" in="SourceGraphic" in2="BackgroundImageFix" result="shape"/>
<feGaussianBlur stdDeviation="1" result="effect1_foregroundBlur_58_219"/>
</filter>
<filter id="filter20_f_58_219" x="153.875" y="14.6246" width="17.3621" height="11.5223" filterUnits="userSpaceOnUse" color-interpolation-filters="sRGB">
<feFlood flood-opacity="0" result="BackgroundImageFix"/>
<feBlend mode="normal" in="SourceGraphic" in2="BackgroundImageFix" result="shape"/>
<feGaussianBlur stdDeviation="1" result="effect1_foregroundBlur_58_219"/>
</filter>
<filter id="filter21_f_58_219" x="162.189" y="27.8877" width="8.55298" height="15.5805" filterUnits="userSpaceOnUse" color-interpolation-filters="sRGB">
<feFlood flood-opacity="0" result="BackgroundImageFix"/>
<feBlend mode="normal" in="SourceGraphic" in2="BackgroundImageFix" result="shape"/>
<feGaussianBlur stdDeviation="1" result="effect1_foregroundBlur_58_219"/>
</filter>
</defs>
</svg>
